<mxfile host="Electron" agent="Mozilla/5.0 (X11; Linux x86_64) AppleWebKit/537.36 (KHTML, like Gecko) draw.io/26.1.1 Chrome/132.0.6834.210 Electron/34.3.3 Safari/537.36" version="26.1.1" pages="2">
  <diagram name="Ristrutturato" id="FzuGqaLjD-RMNXSvIlVE">
    <mxGraphModel dx="2876" dy="1193" grid="1" gridSize="10" guides="1" tooltips="1" connect="1" arrows="1" fold="1" page="1" pageScale="1" pageWidth="827" pageHeight="1169" math="0" shadow="0">
      <root>
        <mxCell id="0" />
        <mxCell id="1" parent="0" />
        <mxCell id="o0g1hDCvmvn1Aepoe5Rd-31" style="edgeStyle=orthogonalEdgeStyle;rounded=0;orthogonalLoop=1;jettySize=auto;html=1;entryX=1;entryY=0.5;entryDx=0;entryDy=0;endArrow=none;startFill=0;exitX=0.5;exitY=1;exitDx=0;exitDy=0;" parent="1" source="LM9WdSBUdoUP8_0EEPbQ-3" target="u8TzVvx8Bvdu2bZGyt7g-22" edge="1">
          <mxGeometry relative="1" as="geometry">
            <Array as="points">
              <mxPoint x="-448" y="1080" />
            </Array>
          </mxGeometry>
        </mxCell>
        <mxCell id="LM9WdSBUdoUP8_0EEPbQ-8" value="Avviene in" style="rhombus;whiteSpace=wrap;html=1;" parent="1" vertex="1">
          <mxGeometry x="-470" y="160" width="120" height="60" as="geometry" />
        </mxCell>
        <mxCell id="LM9WdSBUdoUP8_0EEPbQ-52" value="Gestisce" style="shape=rhombus;perimeter=rhombusPerimeter;whiteSpace=wrap;html=1;align=center;" parent="1" vertex="1">
          <mxGeometry x="-660" y="670" width="120" height="60" as="geometry" />
        </mxCell>
        <mxCell id="LM9WdSBUdoUP8_0EEPbQ-59" value="" style="edgeStyle=orthogonalEdgeStyle;fontSize=12;html=1;endArrow=none;endFill=1;rounded=0;exitX=0.25;exitY=1;exitDx=0;exitDy=0;entryX=0.5;entryY=0;entryDx=0;entryDy=0;startFill=0;" parent="1" source="LM9WdSBUdoUP8_0EEPbQ-1" target="LM9WdSBUdoUP8_0EEPbQ-52" edge="1">
          <mxGeometry width="100" height="100" relative="1" as="geometry">
            <mxPoint x="-217" y="660" as="sourcePoint" />
            <mxPoint x="-77" y="830" as="targetPoint" />
            <Array as="points">
              <mxPoint x="-500" y="560" />
              <mxPoint x="-600" y="560" />
            </Array>
          </mxGeometry>
        </mxCell>
        <mxCell id="o0g1hDCvmvn1Aepoe5Rd-21" style="edgeStyle=orthogonalEdgeStyle;rounded=0;orthogonalLoop=1;jettySize=auto;html=1;entryX=0.5;entryY=1;entryDx=0;entryDy=0;endArrow=none;startFill=0;" parent="1" source="LM9WdSBUdoUP8_0EEPbQ-64" target="LM9WdSBUdoUP8_0EEPbQ-4" edge="1">
          <mxGeometry relative="1" as="geometry">
            <Array as="points">
              <mxPoint x="-680" y="381" />
            </Array>
          </mxGeometry>
        </mxCell>
        <mxCell id="o0g1hDCvmvn1Aepoe5Rd-22" style="edgeStyle=orthogonalEdgeStyle;rounded=0;orthogonalLoop=1;jettySize=auto;html=1;endArrow=none;startFill=0;" parent="1" source="LM9WdSBUdoUP8_0EEPbQ-64" target="LM9WdSBUdoUP8_0EEPbQ-2" edge="1">
          <mxGeometry relative="1" as="geometry">
            <Array as="points">
              <mxPoint x="-680" y="800" />
              <mxPoint x="-680" y="800" />
            </Array>
          </mxGeometry>
        </mxCell>
        <mxCell id="LM9WdSBUdoUP8_0EEPbQ-64" value="Fa riferimento" style="shape=rhombus;perimeter=rhombusPerimeter;whiteSpace=wrap;html=1;align=center;" parent="1" vertex="1">
          <mxGeometry x="-740" y="560.63" width="120" height="60" as="geometry" />
        </mxCell>
        <mxCell id="LM9WdSBUdoUP8_0EEPbQ-86" value="" style="edgeStyle=orthogonalEdgeStyle;fontSize=12;html=1;endArrow=none;rounded=0;exitX=0.885;exitY=-0.011;exitDx=0;exitDy=0;entryX=0;entryY=0.5;entryDx=0;entryDy=0;startFill=0;exitPerimeter=0;" parent="1" source="LM9WdSBUdoUP8_0EEPbQ-4" target="LM9WdSBUdoUP8_0EEPbQ-8" edge="1">
          <mxGeometry width="100" height="100" relative="1" as="geometry">
            <mxPoint x="-487" y="670" as="sourcePoint" />
            <mxPoint x="-487" y="454" as="targetPoint" />
          </mxGeometry>
        </mxCell>
        <mxCell id="LM9WdSBUdoUP8_0EEPbQ-87" value="" style="edgeStyle=orthogonalEdgeStyle;fontSize=12;html=1;endArrow=none;rounded=0;entryX=1;entryY=0.5;entryDx=0;entryDy=0;exitX=0.25;exitY=1;exitDx=0;exitDy=0;startFill=0;" parent="1" source="u8TzVvx8Bvdu2bZGyt7g-33" target="LM9WdSBUdoUP8_0EEPbQ-8" edge="1">
          <mxGeometry width="100" height="100" relative="1" as="geometry">
            <mxPoint x="-247" y="660" as="sourcePoint" />
            <mxPoint x="-187" y="570" as="targetPoint" />
            <Array as="points">
              <mxPoint x="-250" y="150" />
              <mxPoint x="-250" y="190" />
            </Array>
          </mxGeometry>
        </mxCell>
        <mxCell id="vMsEH0IdqsgCer6SR18b-14" style="edgeStyle=orthogonalEdgeStyle;rounded=0;orthogonalLoop=1;jettySize=auto;html=1;exitX=0.5;exitY=1;exitDx=0;exitDy=0;entryX=0.25;entryY=0;entryDx=0;entryDy=0;endArrow=none;startFill=0;" parent="1" source="u8TzVvx8Bvdu2bZGyt7g-18" target="LM9WdSBUdoUP8_0EEPbQ-4" edge="1">
          <mxGeometry relative="1" as="geometry">
            <Array as="points">
              <mxPoint x="-680" y="321" />
            </Array>
          </mxGeometry>
        </mxCell>
        <mxCell id="vMsEH0IdqsgCer6SR18b-15" style="edgeStyle=orthogonalEdgeStyle;rounded=0;orthogonalLoop=1;jettySize=auto;html=1;entryX=0.25;entryY=1;entryDx=0;entryDy=0;endArrow=none;startFill=0;" parent="1" source="u8TzVvx8Bvdu2bZGyt7g-18" target="u8TzVvx8Bvdu2bZGyt7g-11" edge="1">
          <mxGeometry relative="1" as="geometry">
            <Array as="points">
              <mxPoint x="-680" y="140" />
            </Array>
          </mxGeometry>
        </mxCell>
        <mxCell id="u8TzVvx8Bvdu2bZGyt7g-18" value="Sta in" style="shape=rhombus;perimeter=rhombusPerimeter;whiteSpace=wrap;html=1;align=center;aspect=fixed;" parent="1" vertex="1">
          <mxGeometry x="-730" y="180" width="100" height="50" as="geometry" />
        </mxCell>
        <mxCell id="o0g1hDCvmvn1Aepoe5Rd-52" style="edgeStyle=orthogonalEdgeStyle;rounded=0;orthogonalLoop=1;jettySize=auto;html=1;entryX=0.5;entryY=1;entryDx=0;entryDy=0;endArrow=none;startFill=0;" parent="1" source="u8TzVvx8Bvdu2bZGyt7g-22" target="LM9WdSBUdoUP8_0EEPbQ-2" edge="1">
          <mxGeometry relative="1" as="geometry" />
        </mxCell>
        <mxCell id="u8TzVvx8Bvdu2bZGyt7g-22" value="Iscritto a" style="shape=rhombus;perimeter=rhombusPerimeter;whiteSpace=wrap;html=1;align=center;" parent="1" vertex="1">
          <mxGeometry x="-697" y="1050" width="120" height="60" as="geometry" />
        </mxCell>
        <mxCell id="o0g1hDCvmvn1Aepoe5Rd-50" style="edgeStyle=orthogonalEdgeStyle;rounded=0;orthogonalLoop=1;jettySize=auto;html=1;endArrow=none;startFill=0;" parent="1" source="u8TzVvx8Bvdu2bZGyt7g-38" target="LM9WdSBUdoUP8_0EEPbQ-1" edge="1">
          <mxGeometry relative="1" as="geometry" />
        </mxCell>
        <mxCell id="o0g1hDCvmvn1Aepoe5Rd-51" style="edgeStyle=orthogonalEdgeStyle;rounded=0;orthogonalLoop=1;jettySize=auto;html=1;entryX=0.5;entryY=1;entryDx=0;entryDy=0;endArrow=none;startFill=0;exitX=0.5;exitY=0;exitDx=0;exitDy=0;" parent="1" source="u8TzVvx8Bvdu2bZGyt7g-38" target="u8TzVvx8Bvdu2bZGyt7g-33" edge="1">
          <mxGeometry relative="1" as="geometry">
            <Array as="points">
              <mxPoint x="-470" y="240" />
              <mxPoint x="-230" y="240" />
              <mxPoint x="-230" y="150" />
            </Array>
          </mxGeometry>
        </mxCell>
        <mxCell id="u8TzVvx8Bvdu2bZGyt7g-38" value="Crea" style="shape=rhombus;perimeter=rhombusPerimeter;whiteSpace=wrap;html=1;align=center;aspect=fixed;" parent="1" vertex="1">
          <mxGeometry x="-520" y="280" width="100" height="50" as="geometry" />
        </mxCell>
        <mxCell id="o0g1hDCvmvn1Aepoe5Rd-13" style="edgeStyle=orthogonalEdgeStyle;rounded=0;orthogonalLoop=1;jettySize=auto;html=1;entryX=0.845;entryY=0.063;entryDx=0;entryDy=0;entryPerimeter=0;endArrow=none;startFill=0;" parent="1" source="LM9WdSBUdoUP8_0EEPbQ-52" target="LM9WdSBUdoUP8_0EEPbQ-2" edge="1">
          <mxGeometry relative="1" as="geometry">
            <Array as="points">
              <mxPoint x="-600" y="858" />
            </Array>
          </mxGeometry>
        </mxCell>
        <mxCell id="o0g1hDCvmvn1Aepoe5Rd-24" value="" style="group" parent="1" vertex="1" connectable="0">
          <mxGeometry x="-827" y="321.25" width="250" height="60" as="geometry" />
        </mxCell>
        <mxCell id="LM9WdSBUdoUP8_0EEPbQ-4" value="Sala prove" style="rounded=0;whiteSpace=wrap;html=1;" parent="o0g1hDCvmvn1Aepoe5Rd-24" vertex="1">
          <mxGeometry x="130" width="120" height="60" as="geometry" />
        </mxCell>
        <mxCell id="o0g1hDCvmvn1Aepoe5Rd-12" style="edgeStyle=orthogonalEdgeStyle;rounded=0;orthogonalLoop=1;jettySize=auto;html=1;entryX=0;entryY=0.25;entryDx=0;entryDy=0;endArrow=none;startFill=1;startArrow=oval;" parent="o0g1hDCvmvn1Aepoe5Rd-24" source="LM9WdSBUdoUP8_0EEPbQ-67" target="LM9WdSBUdoUP8_0EEPbQ-4" edge="1">
          <mxGeometry relative="1" as="geometry" />
        </mxCell>
        <mxCell id="LM9WdSBUdoUP8_0EEPbQ-67" value="&lt;u&gt;NumAula&lt;/u&gt;" style="text;strokeColor=none;fillColor=none;spacingLeft=4;spacingRight=4;overflow=hidden;rotatable=0;points=[[0,0.5],[1,0.5]];portConstraint=eastwest;fontSize=12;whiteSpace=wrap;html=1;align=right;" parent="o0g1hDCvmvn1Aepoe5Rd-24" vertex="1">
          <mxGeometry x="20" width="80" height="30" as="geometry" />
        </mxCell>
        <mxCell id="LM9WdSBUdoUP8_0EEPbQ-71" style="edgeStyle=orthogonalEdgeStyle;rounded=0;orthogonalLoop=1;jettySize=auto;html=1;entryX=0;entryY=0.5;entryDx=0;entryDy=0;endArrow=none;endFill=0;startArrow=oval;startFill=0;" parent="o0g1hDCvmvn1Aepoe5Rd-24" source="LM9WdSBUdoUP8_0EEPbQ-70" target="LM9WdSBUdoUP8_0EEPbQ-4" edge="1">
          <mxGeometry relative="1" as="geometry" />
        </mxCell>
        <mxCell id="LM9WdSBUdoUP8_0EEPbQ-70" value="Capienza" style="text;strokeColor=none;fillColor=none;spacingLeft=4;spacingRight=4;overflow=hidden;rotatable=0;points=[[0,0.5],[1,0.5]];portConstraint=eastwest;fontSize=12;whiteSpace=wrap;html=1;align=right;" parent="o0g1hDCvmvn1Aepoe5Rd-24" vertex="1">
          <mxGeometry x="30" y="15" width="70" height="30" as="geometry" />
        </mxCell>
        <mxCell id="o0g1hDCvmvn1Aepoe5Rd-25" value="" style="group" parent="1" vertex="1" connectable="0">
          <mxGeometry x="-807" y="80" width="230" height="60" as="geometry" />
        </mxCell>
        <mxCell id="u8TzVvx8Bvdu2bZGyt7g-11" value="Strumentazione" style="whiteSpace=wrap;html=1;" parent="o0g1hDCvmvn1Aepoe5Rd-25" vertex="1">
          <mxGeometry x="110" width="120" height="60" as="geometry" />
        </mxCell>
        <mxCell id="u8TzVvx8Bvdu2bZGyt7g-13" style="edgeStyle=orthogonalEdgeStyle;rounded=0;orthogonalLoop=1;jettySize=auto;html=1;entryX=0;entryY=0.25;entryDx=0;entryDy=0;startArrow=oval;startFill=1;endArrow=none;endFill=0;" parent="o0g1hDCvmvn1Aepoe5Rd-25" source="u8TzVvx8Bvdu2bZGyt7g-12" target="u8TzVvx8Bvdu2bZGyt7g-11" edge="1">
          <mxGeometry relative="1" as="geometry" />
        </mxCell>
        <mxCell id="u8TzVvx8Bvdu2bZGyt7g-12" value="&lt;u&gt;ID&lt;/u&gt;" style="text;strokeColor=none;fillColor=none;spacingLeft=4;spacingRight=4;overflow=hidden;rotatable=0;points=[[0,0.5],[1,0.5]];portConstraint=eastwest;fontSize=12;whiteSpace=wrap;html=1;align=right;" parent="o0g1hDCvmvn1Aepoe5Rd-25" vertex="1">
          <mxGeometry x="50" width="30" height="30" as="geometry" />
        </mxCell>
        <mxCell id="u8TzVvx8Bvdu2bZGyt7g-15" style="edgeStyle=orthogonalEdgeStyle;rounded=0;orthogonalLoop=1;jettySize=auto;html=1;entryX=0;entryY=0.5;entryDx=0;entryDy=0;endArrow=none;endFill=0;startArrow=oval;startFill=0;" parent="o0g1hDCvmvn1Aepoe5Rd-25" source="u8TzVvx8Bvdu2bZGyt7g-14" target="u8TzVvx8Bvdu2bZGyt7g-11" edge="1">
          <mxGeometry relative="1" as="geometry" />
        </mxCell>
        <mxCell id="u8TzVvx8Bvdu2bZGyt7g-14" value="Tipologia" style="text;strokeColor=none;fillColor=none;spacingLeft=4;spacingRight=4;overflow=hidden;rotatable=0;points=[[0,0.5],[1,0.5]];portConstraint=eastwest;fontSize=12;whiteSpace=wrap;html=1;align=right;" parent="o0g1hDCvmvn1Aepoe5Rd-25" vertex="1">
          <mxGeometry x="10" y="15" width="70" height="30" as="geometry" />
        </mxCell>
        <mxCell id="u8TzVvx8Bvdu2bZGyt7g-17" style="edgeStyle=orthogonalEdgeStyle;rounded=0;orthogonalLoop=1;jettySize=auto;html=1;entryX=0;entryY=0.75;entryDx=0;entryDy=0;endArrow=none;endFill=0;startArrow=oval;startFill=0;" parent="o0g1hDCvmvn1Aepoe5Rd-25" source="u8TzVvx8Bvdu2bZGyt7g-16" target="u8TzVvx8Bvdu2bZGyt7g-11" edge="1">
          <mxGeometry relative="1" as="geometry" />
        </mxCell>
        <mxCell id="u8TzVvx8Bvdu2bZGyt7g-16" value="Descrizione" style="text;strokeColor=none;fillColor=none;spacingLeft=4;spacingRight=4;overflow=hidden;rotatable=0;points=[[0,0.5],[1,0.5]];portConstraint=eastwest;fontSize=12;whiteSpace=wrap;html=1;align=right;" parent="o0g1hDCvmvn1Aepoe5Rd-25" vertex="1">
          <mxGeometry y="30" width="80" height="30" as="geometry" />
        </mxCell>
        <mxCell id="o0g1hDCvmvn1Aepoe5Rd-26" value="" style="group" parent="1" vertex="1" connectable="0">
          <mxGeometry x="-401" y="90" width="360" height="60" as="geometry" />
        </mxCell>
        <mxCell id="o0g1hDCvmvn1Aepoe5Rd-6" style="edgeStyle=orthogonalEdgeStyle;rounded=0;orthogonalLoop=1;jettySize=auto;html=1;entryX=1;entryY=0.25;entryDx=0;entryDy=0;endArrow=none;startFill=0;startArrow=oval;" parent="o0g1hDCvmvn1Aepoe5Rd-26" source="LM9WdSBUdoUP8_0EEPbQ-75" target="u8TzVvx8Bvdu2bZGyt7g-33" edge="1">
          <mxGeometry relative="1" as="geometry">
            <Array as="points">
              <mxPoint x="281" y="15" />
              <mxPoint x="281" y="15" />
            </Array>
          </mxGeometry>
        </mxCell>
        <mxCell id="LM9WdSBUdoUP8_0EEPbQ-75" value="OraInizio" style="text;strokeColor=none;fillColor=none;spacingLeft=4;spacingRight=4;overflow=hidden;rotatable=0;points=[[0,0.5],[1,0.5]];portConstraint=eastwest;fontSize=12;whiteSpace=wrap;html=1;align=left;" parent="o0g1hDCvmvn1Aepoe5Rd-26" vertex="1">
          <mxGeometry x="290" width="60" height="30" as="geometry" />
        </mxCell>
        <mxCell id="o0g1hDCvmvn1Aepoe5Rd-3" style="edgeStyle=orthogonalEdgeStyle;rounded=0;orthogonalLoop=1;jettySize=auto;html=1;entryX=0;entryY=0.75;entryDx=0;entryDy=0;endArrow=none;startFill=0;startArrow=oval;" parent="o0g1hDCvmvn1Aepoe5Rd-26" source="LM9WdSBUdoUP8_0EEPbQ-76" target="u8TzVvx8Bvdu2bZGyt7g-33" edge="1">
          <mxGeometry relative="1" as="geometry">
            <mxPoint x="120" y="55" as="targetPoint" />
          </mxGeometry>
        </mxCell>
        <mxCell id="LM9WdSBUdoUP8_0EEPbQ-76" value="DataPren" style="text;strokeColor=none;fillColor=none;spacingLeft=4;spacingRight=4;overflow=hidden;rotatable=0;points=[[0,0.5],[1,0.5]];portConstraint=eastwest;fontSize=12;whiteSpace=wrap;html=1;align=right;" parent="o0g1hDCvmvn1Aepoe5Rd-26" vertex="1">
          <mxGeometry x="30" y="30" width="80" height="30" as="geometry" />
        </mxCell>
        <mxCell id="o0g1hDCvmvn1Aepoe5Rd-4" style="edgeStyle=orthogonalEdgeStyle;rounded=0;orthogonalLoop=1;jettySize=auto;html=1;entryX=0;entryY=0.5;entryDx=0;entryDy=0;endArrow=none;startFill=0;startArrow=oval;" parent="o0g1hDCvmvn1Aepoe5Rd-26" source="LM9WdSBUdoUP8_0EEPbQ-77" target="u8TzVvx8Bvdu2bZGyt7g-33" edge="1">
          <mxGeometry relative="1" as="geometry" />
        </mxCell>
        <mxCell id="LM9WdSBUdoUP8_0EEPbQ-77" value="Attivita" style="text;strokeColor=none;fillColor=none;spacingLeft=4;spacingRight=4;overflow=hidden;rotatable=0;points=[[0,0.5],[1,0.5]];portConstraint=eastwest;fontSize=12;whiteSpace=wrap;html=1;align=right;" parent="o0g1hDCvmvn1Aepoe5Rd-26" vertex="1">
          <mxGeometry x="60" y="15" width="50" height="30" as="geometry" />
        </mxCell>
        <mxCell id="LM9WdSBUdoUP8_0EEPbQ-81" value="OraFine" style="text;strokeColor=none;fillColor=none;spacingLeft=4;spacingRight=4;overflow=hidden;rotatable=0;points=[[0,0.5],[1,0.5]];portConstraint=eastwest;fontSize=12;whiteSpace=wrap;html=1;" parent="o0g1hDCvmvn1Aepoe5Rd-26" vertex="1">
          <mxGeometry x="290" y="20" width="70" height="30" as="geometry" />
        </mxCell>
        <mxCell id="o0g1hDCvmvn1Aepoe5Rd-5" style="edgeStyle=orthogonalEdgeStyle;rounded=0;orthogonalLoop=1;jettySize=auto;html=1;entryX=0;entryY=0.25;entryDx=0;entryDy=0;endArrow=none;startFill=1;startArrow=oval;" parent="o0g1hDCvmvn1Aepoe5Rd-26" source="u8TzVvx8Bvdu2bZGyt7g-31" target="u8TzVvx8Bvdu2bZGyt7g-33" edge="1">
          <mxGeometry relative="1" as="geometry" />
        </mxCell>
        <mxCell id="u8TzVvx8Bvdu2bZGyt7g-31" value="&lt;u&gt;IDPrenotazione&lt;/u&gt;" style="text;strokeColor=none;fillColor=none;spacingLeft=4;spacingRight=4;overflow=hidden;rotatable=0;points=[[0,0.5],[1,0.5]];portConstraint=eastwest;fontSize=12;whiteSpace=wrap;html=1;align=right;" parent="o0g1hDCvmvn1Aepoe5Rd-26" vertex="1">
          <mxGeometry x="10" width="100" height="30" as="geometry" />
        </mxCell>
        <mxCell id="u8TzVvx8Bvdu2bZGyt7g-33" value="Prenotazione" style="whiteSpace=wrap;html=1;" parent="o0g1hDCvmvn1Aepoe5Rd-26" vertex="1">
          <mxGeometry x="140" width="120" height="60" as="geometry" />
        </mxCell>
        <mxCell id="o0g1hDCvmvn1Aepoe5Rd-8" style="edgeStyle=orthogonalEdgeStyle;rounded=0;orthogonalLoop=1;jettySize=auto;html=1;entryX=0.998;entryY=0.584;entryDx=0;entryDy=0;entryPerimeter=0;endArrow=none;startFill=0;startArrow=oval;" parent="o0g1hDCvmvn1Aepoe5Rd-26" source="LM9WdSBUdoUP8_0EEPbQ-81" target="u8TzVvx8Bvdu2bZGyt7g-33" edge="1">
          <mxGeometry relative="1" as="geometry" />
        </mxCell>
        <mxCell id="o0g1hDCvmvn1Aepoe5Rd-28" value="" style="group" parent="1" vertex="1" connectable="0">
          <mxGeometry x="-797" y="848.13" width="220" height="66.25" as="geometry" />
        </mxCell>
        <mxCell id="LM9WdSBUdoUP8_0EEPbQ-2" value="Settore" style="whiteSpace=wrap;html=1;" parent="o0g1hDCvmvn1Aepoe5Rd-28" vertex="1">
          <mxGeometry x="100" y="6.25" width="120" height="60" as="geometry" />
        </mxCell>
        <mxCell id="o0g1hDCvmvn1Aepoe5Rd-17" style="edgeStyle=orthogonalEdgeStyle;rounded=0;orthogonalLoop=1;jettySize=auto;html=1;entryX=0;entryY=0.5;entryDx=0;entryDy=0;endArrow=none;startFill=0;startArrow=oval;" parent="o0g1hDCvmvn1Aepoe5Rd-28" source="LM9WdSBUdoUP8_0EEPbQ-23" target="LM9WdSBUdoUP8_0EEPbQ-2" edge="1">
          <mxGeometry relative="1" as="geometry" />
        </mxCell>
        <mxCell id="LM9WdSBUdoUP8_0EEPbQ-23" value="&lt;u&gt;Nome&lt;/u&gt;" style="text;strokeColor=none;fillColor=none;spacingLeft=4;spacingRight=4;overflow=hidden;rotatable=0;points=[[0,0.5],[1,0.5]];portConstraint=eastwest;fontSize=12;whiteSpace=wrap;html=1;align=right;" parent="o0g1hDCvmvn1Aepoe5Rd-28" vertex="1">
          <mxGeometry x="20" y="21.25" width="50" height="30" as="geometry" />
        </mxCell>
        <mxCell id="o0g1hDCvmvn1Aepoe5Rd-18" style="edgeStyle=orthogonalEdgeStyle;rounded=0;orthogonalLoop=1;jettySize=auto;html=1;entryX=0;entryY=0.25;entryDx=0;entryDy=0;endArrow=none;startFill=1;startArrow=oval;" parent="o0g1hDCvmvn1Aepoe5Rd-28" source="LM9WdSBUdoUP8_0EEPbQ-90" target="LM9WdSBUdoUP8_0EEPbQ-2" edge="1">
          <mxGeometry relative="1" as="geometry" />
        </mxCell>
        <mxCell id="LM9WdSBUdoUP8_0EEPbQ-90" value="&lt;u&gt;Tipologia&lt;/u&gt;" style="text;strokeColor=none;fillColor=none;spacingLeft=4;spacingRight=4;overflow=hidden;rotatable=0;points=[[0,0.5],[1,0.5]];portConstraint=eastwest;fontSize=12;whiteSpace=wrap;html=1;align=right;" parent="o0g1hDCvmvn1Aepoe5Rd-28" vertex="1">
          <mxGeometry x="10" y="6.25" width="60" height="30" as="geometry" />
        </mxCell>
        <mxCell id="o0g1hDCvmvn1Aepoe5Rd-43" value="" style="group" parent="1" vertex="1" connectable="0">
          <mxGeometry x="-620" y="950" width="355" height="60" as="geometry" />
        </mxCell>
        <mxCell id="LM9WdSBUdoUP8_0EEPbQ-41" value="Cognome" style="text;strokeColor=none;fillColor=none;spacingLeft=4;spacingRight=4;overflow=hidden;rotatable=0;points=[[0,0.5],[1,0.5]];portConstraint=eastwest;fontSize=12;whiteSpace=wrap;html=1;align=right;" parent="o0g1hDCvmvn1Aepoe5Rd-43" vertex="1">
          <mxGeometry y="15" width="70" height="30" as="geometry" />
        </mxCell>
        <mxCell id="vMsEH0IdqsgCer6SR18b-7" value="" style="group" parent="o0g1hDCvmvn1Aepoe5Rd-43" vertex="1" connectable="0">
          <mxGeometry x="20" width="335" height="60" as="geometry" />
        </mxCell>
        <mxCell id="o0g1hDCvmvn1Aepoe5Rd-38" style="edgeStyle=orthogonalEdgeStyle;rounded=0;orthogonalLoop=1;jettySize=auto;html=1;startArrow=none;startFill=0;endArrow=oval;endFill=0;" parent="vMsEH0IdqsgCer6SR18b-7" source="LM9WdSBUdoUP8_0EEPbQ-3" target="LM9WdSBUdoUP8_0EEPbQ-41" edge="1">
          <mxGeometry relative="1" as="geometry" />
        </mxCell>
        <mxCell id="LM9WdSBUdoUP8_0EEPbQ-3" value="Iscritto" style="rounded=0;whiteSpace=wrap;html=1;" parent="vMsEH0IdqsgCer6SR18b-7" vertex="1">
          <mxGeometry x="91.5" width="120" height="60" as="geometry" />
        </mxCell>
        <mxCell id="o0g1hDCvmvn1Aepoe5Rd-39" style="edgeStyle=orthogonalEdgeStyle;rounded=0;orthogonalLoop=1;jettySize=auto;html=1;entryX=0;entryY=0.75;entryDx=0;entryDy=0;startArrow=oval;startFill=0;endArrow=none;" parent="vMsEH0IdqsgCer6SR18b-7" source="LM9WdSBUdoUP8_0EEPbQ-40" target="LM9WdSBUdoUP8_0EEPbQ-3" edge="1">
          <mxGeometry relative="1" as="geometry" />
        </mxCell>
        <mxCell id="LM9WdSBUdoUP8_0EEPbQ-40" value="Nome" style="text;strokeColor=none;fillColor=none;spacingLeft=4;spacingRight=4;overflow=hidden;rotatable=0;points=[[0,0.5],[1,0.5]];portConstraint=eastwest;fontSize=12;whiteSpace=wrap;html=1;align=right;" parent="vMsEH0IdqsgCer6SR18b-7" vertex="1">
          <mxGeometry y="30" width="50" height="30" as="geometry" />
        </mxCell>
        <mxCell id="o0g1hDCvmvn1Aepoe5Rd-40" style="edgeStyle=orthogonalEdgeStyle;rounded=0;orthogonalLoop=1;jettySize=auto;html=1;entryX=1;entryY=0.25;entryDx=0;entryDy=0;endArrow=none;startFill=0;startArrow=oval;" parent="vMsEH0IdqsgCer6SR18b-7" source="LM9WdSBUdoUP8_0EEPbQ-42" target="LM9WdSBUdoUP8_0EEPbQ-3" edge="1">
          <mxGeometry relative="1" as="geometry" />
        </mxCell>
        <mxCell id="LM9WdSBUdoUP8_0EEPbQ-42" value="DataNascita" style="text;strokeColor=none;fillColor=none;spacingLeft=4;spacingRight=4;overflow=hidden;rotatable=0;points=[[0,0.5],[1,0.5]];portConstraint=eastwest;fontSize=12;whiteSpace=wrap;html=1;" parent="vMsEH0IdqsgCer6SR18b-7" vertex="1">
          <mxGeometry x="240" width="95" height="30" as="geometry" />
        </mxCell>
        <mxCell id="o0g1hDCvmvn1Aepoe5Rd-37" style="edgeStyle=orthogonalEdgeStyle;rounded=0;orthogonalLoop=1;jettySize=auto;html=1;entryX=0;entryY=0.25;entryDx=0;entryDy=0;endArrow=none;startFill=1;startArrow=oval;" parent="vMsEH0IdqsgCer6SR18b-7" source="LM9WdSBUdoUP8_0EEPbQ-43" target="LM9WdSBUdoUP8_0EEPbQ-3" edge="1">
          <mxGeometry relative="1" as="geometry" />
        </mxCell>
        <mxCell id="LM9WdSBUdoUP8_0EEPbQ-43" value="&lt;u&gt;Email&lt;/u&gt;" style="text;strokeColor=none;fillColor=none;spacingLeft=4;spacingRight=4;overflow=hidden;rotatable=0;points=[[0,0.5],[1,0.5]];portConstraint=eastwest;fontSize=12;whiteSpace=wrap;html=1;align=right;" parent="vMsEH0IdqsgCer6SR18b-7" vertex="1">
          <mxGeometry x="5" width="45" height="30" as="geometry" />
        </mxCell>
        <mxCell id="o0g1hDCvmvn1Aepoe5Rd-41" style="edgeStyle=orthogonalEdgeStyle;rounded=0;orthogonalLoop=1;jettySize=auto;html=1;entryX=1;entryY=0.5;entryDx=0;entryDy=0;endArrow=none;startFill=0;startArrow=oval;" parent="vMsEH0IdqsgCer6SR18b-7" source="LM9WdSBUdoUP8_0EEPbQ-44" target="LM9WdSBUdoUP8_0EEPbQ-3" edge="1">
          <mxGeometry relative="1" as="geometry" />
        </mxCell>
        <mxCell id="LM9WdSBUdoUP8_0EEPbQ-44" value="Foto" style="text;strokeColor=none;fillColor=none;spacingLeft=4;spacingRight=4;overflow=hidden;rotatable=0;points=[[0,0.5],[1,0.5]];portConstraint=eastwest;fontSize=12;whiteSpace=wrap;html=1;" parent="vMsEH0IdqsgCer6SR18b-7" vertex="1">
          <mxGeometry x="240" y="15" width="40" height="30" as="geometry" />
        </mxCell>
        <mxCell id="vMsEH0IdqsgCer6SR18b-6" style="edgeStyle=orthogonalEdgeStyle;rounded=0;orthogonalLoop=1;jettySize=auto;html=1;entryX=1;entryY=0.75;entryDx=0;entryDy=0;endArrow=none;startFill=0;startArrow=oval;" parent="vMsEH0IdqsgCer6SR18b-7" source="vMsEH0IdqsgCer6SR18b-5" target="LM9WdSBUdoUP8_0EEPbQ-3" edge="1">
          <mxGeometry relative="1" as="geometry" />
        </mxCell>
        <mxCell id="vMsEH0IdqsgCer6SR18b-5" value="Ruolo" style="text;strokeColor=none;fillColor=none;spacingLeft=4;spacingRight=4;overflow=hidden;rotatable=0;points=[[0,0.5],[1,0.5]];portConstraint=eastwest;fontSize=12;whiteSpace=wrap;html=1;align=left;" parent="vMsEH0IdqsgCer6SR18b-7" vertex="1">
          <mxGeometry x="240" y="30" width="50" height="30" as="geometry" />
        </mxCell>
        <mxCell id="o0g1hDCvmvn1Aepoe5Rd-47" value="" style="group" parent="1" vertex="1" connectable="0">
          <mxGeometry x="-680" y="440" width="270" height="60" as="geometry" />
        </mxCell>
        <mxCell id="LM9WdSBUdoUP8_0EEPbQ-1" value="Responsabile" style="rounded=0;whiteSpace=wrap;html=1;" parent="o0g1hDCvmvn1Aepoe5Rd-47" vertex="1">
          <mxGeometry x="150" width="120" height="60" as="geometry" />
        </mxCell>
        <mxCell id="o0g1hDCvmvn1Aepoe5Rd-45" style="edgeStyle=orthogonalEdgeStyle;rounded=0;orthogonalLoop=1;jettySize=auto;html=1;entryX=0;entryY=0.25;entryDx=0;entryDy=0;endArrow=none;startFill=0;startArrow=oval;" parent="o0g1hDCvmvn1Aepoe5Rd-47" source="LM9WdSBUdoUP8_0EEPbQ-56" target="LM9WdSBUdoUP8_0EEPbQ-1" edge="1">
          <mxGeometry relative="1" as="geometry" />
        </mxCell>
        <mxCell id="LM9WdSBUdoUP8_0EEPbQ-56" value="Inizio incarico" style="text;strokeColor=none;fillColor=none;spacingLeft=4;spacingRight=4;overflow=hidden;rotatable=0;points=[[0,0.5],[1,0.5]];portConstraint=eastwest;fontSize=12;whiteSpace=wrap;html=1;align=right;" parent="o0g1hDCvmvn1Aepoe5Rd-47" vertex="1">
          <mxGeometry width="118.75" height="30" as="geometry" />
        </mxCell>
        <mxCell id="vMsEH0IdqsgCer6SR18b-46" style="edgeStyle=orthogonalEdgeStyle;rounded=0;orthogonalLoop=1;jettySize=auto;html=1;exitX=0.5;exitY=0;exitDx=0;exitDy=0;entryX=0.75;entryY=1;entryDx=0;entryDy=0;endArrow=none;startFill=0;" parent="1" source="vMsEH0IdqsgCer6SR18b-8" target="LM9WdSBUdoUP8_0EEPbQ-1" edge="1">
          <mxGeometry relative="1" as="geometry">
            <Array as="points">
              <mxPoint x="-446" y="500" />
            </Array>
          </mxGeometry>
        </mxCell>
        <mxCell id="vMsEH0IdqsgCer6SR18b-8" value="è un" style="rhombus;whiteSpace=wrap;html=1;aspect=fixed;" parent="1" vertex="1">
          <mxGeometry x="-491" y="650" width="90" height="45" as="geometry" />
        </mxCell>
        <mxCell id="vMsEH0IdqsgCer6SR18b-10" value="" style="endArrow=none;html=1;rounded=0;edgeStyle=orthogonalEdgeStyle;endFill=1;startFill=1;startArrow=oval;" parent="1" edge="1">
          <mxGeometry relative="1" as="geometry">
            <mxPoint x="-481.5" y="590" as="sourcePoint" />
            <mxPoint x="-446" y="760" as="targetPoint" />
            <Array as="points">
              <mxPoint x="-374" y="590" />
              <mxPoint x="-374" y="760" />
            </Array>
          </mxGeometry>
        </mxCell>
        <mxCell id="vMsEH0IdqsgCer6SR18b-22" style="edgeStyle=orthogonalEdgeStyle;rounded=0;orthogonalLoop=1;jettySize=auto;html=1;endArrow=none;startFill=0;entryX=0.5;entryY=1;entryDx=0;entryDy=0;" parent="1" target="vMsEH0IdqsgCer6SR18b-8" edge="1">
          <mxGeometry relative="1" as="geometry">
            <mxPoint x="-451.50000000000006" y="950" as="sourcePoint" />
            <mxPoint x="-460" y="680" as="targetPoint" />
            <Array as="points">
              <mxPoint x="-446" y="950" />
            </Array>
          </mxGeometry>
        </mxCell>
        <mxCell id="vMsEH0IdqsgCer6SR18b-30" value="" style="group" parent="1" vertex="1" connectable="0">
          <mxGeometry x="-401" y="350" width="259" height="60.61999999999989" as="geometry" />
        </mxCell>
        <mxCell id="o0g1hDCvmvn1Aepoe5Rd-54" style="edgeStyle=orthogonalEdgeStyle;rounded=0;orthogonalLoop=1;jettySize=auto;html=1;exitX=1;exitY=0.5;exitDx=0;exitDy=0;entryX=0;entryY=0;entryDx=0;entryDy=0;endArrow=none;startFill=0;startArrow=oval;" parent="vMsEH0IdqsgCer6SR18b-30" source="u8TzVvx8Bvdu2bZGyt7g-48" edge="1">
          <mxGeometry relative="1" as="geometry">
            <mxPoint x="139" y="15.620000000000346" as="targetPoint" />
          </mxGeometry>
        </mxCell>
        <mxCell id="u8TzVvx8Bvdu2bZGyt7g-48" value="Accettazione" style="text;strokeColor=none;fillColor=none;spacingLeft=4;spacingRight=4;overflow=hidden;rotatable=0;points=[[0,0.5],[1,0.5]];portConstraint=eastwest;fontSize=12;whiteSpace=wrap;html=1;align=right;" parent="vMsEH0IdqsgCer6SR18b-30" vertex="1">
          <mxGeometry x="20" width="80" height="30" as="geometry" />
        </mxCell>
        <mxCell id="o0g1hDCvmvn1Aepoe5Rd-53" style="edgeStyle=orthogonalEdgeStyle;rounded=0;orthogonalLoop=1;jettySize=auto;html=1;exitX=1;exitY=0.5;exitDx=0;exitDy=0;entryX=0;entryY=1;entryDx=0;entryDy=0;endArrow=none;startFill=0;startArrow=oval;" parent="vMsEH0IdqsgCer6SR18b-30" source="u8TzVvx8Bvdu2bZGyt7g-50" edge="1">
          <mxGeometry relative="1" as="geometry">
            <mxPoint x="139" y="45.620000000000346" as="targetPoint" />
          </mxGeometry>
        </mxCell>
        <mxCell id="u8TzVvx8Bvdu2bZGyt7g-50" value="DataRisposta" style="text;strokeColor=none;fillColor=none;spacingLeft=4;spacingRight=4;overflow=hidden;rotatable=0;points=[[0,0.5],[1,0.5]];portConstraint=eastwest;fontSize=12;whiteSpace=wrap;html=1;align=right;" parent="vMsEH0IdqsgCer6SR18b-30" vertex="1">
          <mxGeometry y="30.61999999999989" width="100" height="30" as="geometry" />
        </mxCell>
        <mxCell id="vMsEH0IdqsgCer6SR18b-29" value="Invito" style="rounded=0;whiteSpace=wrap;html=1;" parent="vMsEH0IdqsgCer6SR18b-30" vertex="1">
          <mxGeometry x="139" width="120" height="60" as="geometry" />
        </mxCell>
        <mxCell id="n8cf4dkrZ-DvmdOEQcDx-1" style="edgeStyle=orthogonalEdgeStyle;rounded=0;orthogonalLoop=1;jettySize=auto;html=1;exitX=1;exitY=0.5;exitDx=0;exitDy=0;entryX=0;entryY=1;entryDx=0;entryDy=0;endArrow=none;startFill=0;startArrow=oval;" parent="vMsEH0IdqsgCer6SR18b-30" source="n8cf4dkrZ-DvmdOEQcDx-2" edge="1">
          <mxGeometry relative="1" as="geometry">
            <mxPoint x="139" y="30.310000000000343" as="targetPoint" />
          </mxGeometry>
        </mxCell>
        <mxCell id="n8cf4dkrZ-DvmdOEQcDx-2" value="Motivazione" style="text;strokeColor=none;fillColor=none;spacingLeft=4;spacingRight=4;overflow=hidden;rotatable=0;points=[[0,0.5],[1,0.5]];portConstraint=eastwest;fontSize=12;whiteSpace=wrap;html=1;align=right;" parent="vMsEH0IdqsgCer6SR18b-30" vertex="1">
          <mxGeometry y="15.309999999999889" width="100" height="30" as="geometry" />
        </mxCell>
        <mxCell id="vMsEH0IdqsgCer6SR18b-33" style="edgeStyle=orthogonalEdgeStyle;rounded=0;orthogonalLoop=1;jettySize=auto;html=1;entryX=0.5;entryY=1;entryDx=0;entryDy=0;endArrow=none;startFill=0;" parent="1" source="vMsEH0IdqsgCer6SR18b-31" target="u8TzVvx8Bvdu2bZGyt7g-33" edge="1">
          <mxGeometry relative="1" as="geometry">
            <Array as="points">
              <mxPoint x="-200" y="150" />
            </Array>
          </mxGeometry>
        </mxCell>
        <mxCell id="vMsEH0IdqsgCer6SR18b-36" style="edgeStyle=orthogonalEdgeStyle;rounded=0;orthogonalLoop=1;jettySize=auto;html=1;exitX=0.5;exitY=1;exitDx=0;exitDy=0;entryX=0.5;entryY=0;entryDx=0;entryDy=0;endArrow=none;startFill=0;" parent="1" source="vMsEH0IdqsgCer6SR18b-31" target="vMsEH0IdqsgCer6SR18b-29" edge="1">
          <mxGeometry relative="1" as="geometry">
            <Array as="points">
              <mxPoint x="-201" y="350" />
            </Array>
          </mxGeometry>
        </mxCell>
        <mxCell id="vMsEH0IdqsgCer6SR18b-31" value="Per" style="rhombus;whiteSpace=wrap;html=1;" parent="1" vertex="1">
          <mxGeometry x="-251" y="250" width="100" height="50" as="geometry" />
        </mxCell>
        <mxCell id="vMsEH0IdqsgCer6SR18b-38" style="edgeStyle=orthogonalEdgeStyle;rounded=0;orthogonalLoop=1;jettySize=auto;html=1;entryX=0.75;entryY=1;entryDx=0;entryDy=0;endArrow=none;startFill=0;exitX=1;exitY=0.5;exitDx=0;exitDy=0;" parent="1" source="vMsEH0IdqsgCer6SR18b-34" target="vMsEH0IdqsgCer6SR18b-29" edge="1">
          <mxGeometry relative="1" as="geometry" />
        </mxCell>
        <mxCell id="vMsEH0IdqsgCer6SR18b-34" value="Riceve" style="rhombus;whiteSpace=wrap;html=1;" parent="1" vertex="1">
          <mxGeometry x="-350" y="820" width="120" height="60" as="geometry" />
        </mxCell>
        <mxCell id="vMsEH0IdqsgCer6SR18b-37" style="edgeStyle=orthogonalEdgeStyle;rounded=0;orthogonalLoop=1;jettySize=auto;html=1;entryX=0.82;entryY=0.012;entryDx=0;entryDy=0;entryPerimeter=0;endArrow=none;startFill=0;" parent="1" source="vMsEH0IdqsgCer6SR18b-34" target="LM9WdSBUdoUP8_0EEPbQ-3" edge="1">
          <mxGeometry relative="1" as="geometry" />
        </mxCell>
        <mxCell id="vMsEH0IdqsgCer6SR18b-40" style="edgeStyle=orthogonalEdgeStyle;rounded=0;orthogonalLoop=1;jettySize=auto;html=1;entryX=1;entryY=0.5;entryDx=0;entryDy=0;endArrow=none;startFill=0;" parent="1" source="vMsEH0IdqsgCer6SR18b-39" target="LM9WdSBUdoUP8_0EEPbQ-1" edge="1">
          <mxGeometry relative="1" as="geometry" />
        </mxCell>
        <mxCell id="vMsEH0IdqsgCer6SR18b-39" value="Invia" style="rhombus;whiteSpace=wrap;html=1;" parent="1" vertex="1">
          <mxGeometry x="-365" y="445" width="100" height="50" as="geometry" />
        </mxCell>
        <mxCell id="vMsEH0IdqsgCer6SR18b-41" style="edgeStyle=orthogonalEdgeStyle;rounded=0;orthogonalLoop=1;jettySize=auto;html=1;entryX=0.313;entryY=0.996;entryDx=0;entryDy=0;entryPerimeter=0;endArrow=none;startFill=0;" parent="1" source="vMsEH0IdqsgCer6SR18b-39" target="vMsEH0IdqsgCer6SR18b-29" edge="1">
          <mxGeometry relative="1" as="geometry" />
        </mxCell>
        <mxCell id="vMsEH0IdqsgCer6SR18b-44" value="" style="endArrow=none;html=1;rounded=0;edgeStyle=orthogonalEdgeStyle;endFill=1;startFill=1;startArrow=oval;" parent="1" edge="1">
          <mxGeometry relative="1" as="geometry">
            <mxPoint x="-230" y="321.22" as="sourcePoint" />
            <mxPoint x="-200" y="220" as="targetPoint" />
            <Array as="points">
              <mxPoint x="-123" y="321" />
              <mxPoint x="-123" y="220" />
            </Array>
          </mxGeometry>
        </mxCell>
        <mxCell id="vMsEH0IdqsgCer6SR18b-45" value="" style="endArrow=none;html=1;rounded=0;edgeStyle=orthogonalEdgeStyle;endFill=1;startFill=1;startArrow=oval;" parent="1" edge="1">
          <mxGeometry relative="1" as="geometry">
            <mxPoint x="-200" y="800" as="sourcePoint" />
            <mxPoint x="-369" y="850" as="targetPoint" />
            <Array as="points">
              <mxPoint x="-200" y="900" />
              <mxPoint x="-369" y="900" />
            </Array>
          </mxGeometry>
        </mxCell>
        <mxCell id="JSzZBVWKuVzTFZrdCznC-2" value="&lt;font style=&quot;font-size: 10px;&quot;&gt;(0,1)&lt;/font&gt;" style="text;html=1;align=center;verticalAlign=middle;whiteSpace=wrap;rounded=0;" parent="1" vertex="1">
          <mxGeometry x="-712" y="160" width="40" height="20" as="geometry" />
        </mxCell>
        <mxCell id="JSzZBVWKuVzTFZrdCznC-3" value="&lt;font style=&quot;font-size: 10px;&quot;&gt;(1,N)&lt;/font&gt;" style="text;html=1;align=center;verticalAlign=middle;whiteSpace=wrap;rounded=0;" parent="1" vertex="1">
          <mxGeometry x="-719" y="230" width="54" height="20" as="geometry" />
        </mxCell>
        <mxCell id="JSzZBVWKuVzTFZrdCznC-4" value="&lt;font style=&quot;font-size: 10px;&quot;&gt;(1,1)&lt;/font&gt;" style="text;html=1;align=center;verticalAlign=middle;whiteSpace=wrap;rounded=0;" parent="1" vertex="1">
          <mxGeometry x="-500" y="260" width="30" height="20" as="geometry" />
        </mxCell>
        <mxCell id="JSzZBVWKuVzTFZrdCznC-5" value="&lt;font style=&quot;font-size: 10px;&quot;&gt;(0,N)&lt;/font&gt;" style="text;html=1;align=center;verticalAlign=middle;whiteSpace=wrap;rounded=0;" parent="1" vertex="1">
          <mxGeometry x="-500" y="330" width="30" height="20" as="geometry" />
        </mxCell>
        <mxCell id="JSzZBVWKuVzTFZrdCznC-6" value="&lt;font style=&quot;font-size: 10px;&quot;&gt;(1,1)&lt;/font&gt;" style="text;html=1;align=center;verticalAlign=middle;whiteSpace=wrap;rounded=0;" parent="1" vertex="1">
          <mxGeometry x="-712" y="540.63" width="40" height="20" as="geometry" />
        </mxCell>
        <mxCell id="JSzZBVWKuVzTFZrdCznC-7" value="&lt;font style=&quot;font-size: 10px;&quot;&gt;(1,N)&lt;/font&gt;" style="text;html=1;align=center;verticalAlign=middle;whiteSpace=wrap;rounded=0;" parent="1" vertex="1">
          <mxGeometry x="-712" y="620.63" width="40" height="20" as="geometry" />
        </mxCell>
        <mxCell id="JSzZBVWKuVzTFZrdCznC-8" value="&lt;font style=&quot;font-size: 10px;&quot;&gt;(1,1)&lt;/font&gt;" style="text;html=1;align=center;verticalAlign=middle;whiteSpace=wrap;rounded=0;" parent="1" vertex="1">
          <mxGeometry x="-630" y="655" width="30" height="20" as="geometry" />
        </mxCell>
        <mxCell id="JSzZBVWKuVzTFZrdCznC-9" value="&lt;font style=&quot;font-size: 10px;&quot;&gt;(1,1)&lt;/font&gt;" style="text;html=1;align=center;verticalAlign=middle;whiteSpace=wrap;rounded=0;" parent="1" vertex="1">
          <mxGeometry x="-630" y="725" width="30" height="20" as="geometry" />
        </mxCell>
        <mxCell id="JSzZBVWKuVzTFZrdCznC-10" value="&lt;font style=&quot;font-size: 10px;&quot;&gt;(1,1)&lt;/font&gt;" style="text;html=1;align=center;verticalAlign=middle;whiteSpace=wrap;rounded=0;" parent="1" vertex="1">
          <mxGeometry x="-480" y="630" width="40" height="20" as="geometry" />
        </mxCell>
        <mxCell id="JSzZBVWKuVzTFZrdCznC-11" value="&lt;font style=&quot;font-size: 10px;&quot;&gt;(0,N)&lt;/font&gt;" style="text;html=1;align=center;verticalAlign=middle;whiteSpace=wrap;rounded=0;" parent="1" vertex="1">
          <mxGeometry x="-480" y="700" width="40" height="20" as="geometry" />
        </mxCell>
        <mxCell id="JSzZBVWKuVzTFZrdCznC-12" value="&lt;font style=&quot;font-size: 10px;&quot;&gt;(1,N)&lt;/font&gt;" style="text;html=1;align=center;verticalAlign=middle;whiteSpace=wrap;rounded=0;" parent="1" vertex="1">
          <mxGeometry x="-200" y="230" width="30" height="20" as="geometry" />
        </mxCell>
        <mxCell id="JSzZBVWKuVzTFZrdCznC-13" value="&lt;font style=&quot;font-size: 10px;&quot;&gt;(1,1)&lt;/font&gt;" style="text;html=1;align=center;verticalAlign=middle;whiteSpace=wrap;rounded=0;" parent="1" vertex="1">
          <mxGeometry x="-200" y="295" width="30" height="20" as="geometry" />
        </mxCell>
        <mxCell id="JSzZBVWKuVzTFZrdCznC-14" value="&lt;font style=&quot;font-size: 10px;&quot;&gt;(0,N)&lt;/font&gt;" style="text;html=1;align=center;verticalAlign=middle;whiteSpace=wrap;rounded=0;" parent="1" vertex="1">
          <mxGeometry x="-491" y="170" width="30" height="20" as="geometry" />
        </mxCell>
        <mxCell id="JSzZBVWKuVzTFZrdCznC-15" value="&lt;font style=&quot;font-size: 10px;&quot;&gt;(1,1)&lt;/font&gt;" style="text;html=1;align=center;verticalAlign=middle;whiteSpace=wrap;rounded=0;" parent="1" vertex="1">
          <mxGeometry x="-360" y="170" width="30" height="20" as="geometry" />
        </mxCell>
        <mxCell id="JSzZBVWKuVzTFZrdCznC-16" value="&lt;font style=&quot;font-size: 10px;&quot;&gt;(0,N)&lt;/font&gt;" style="text;html=1;align=center;verticalAlign=middle;whiteSpace=wrap;rounded=0;" parent="1" vertex="1">
          <mxGeometry x="-370.5" y="828.13" width="30" height="20" as="geometry" />
        </mxCell>
        <mxCell id="JSzZBVWKuVzTFZrdCznC-17" value="&lt;font style=&quot;font-size: 10px;&quot;&gt;(1,1)&lt;/font&gt;" style="text;html=1;align=center;verticalAlign=middle;whiteSpace=wrap;rounded=0;" parent="1" vertex="1">
          <mxGeometry x="-239.5" y="828.13" width="30" height="20" as="geometry" />
        </mxCell>
        <mxCell id="JSzZBVWKuVzTFZrdCznC-18" value="&lt;font style=&quot;font-size: 10px;&quot;&gt;(1,N)&lt;/font&gt;" style="text;html=1;align=center;verticalAlign=middle;whiteSpace=wrap;rounded=0;" parent="1" vertex="1">
          <mxGeometry x="-589" y="1060" width="40" height="20" as="geometry" />
        </mxCell>
        <mxCell id="JSzZBVWKuVzTFZrdCznC-19" value="&lt;font style=&quot;font-size: 10px;&quot;&gt;(1,N)&lt;/font&gt;" style="text;html=1;align=center;verticalAlign=middle;whiteSpace=wrap;rounded=0;" parent="1" vertex="1">
          <mxGeometry x="-672" y="1030" width="40" height="20" as="geometry" />
        </mxCell>
        <mxCell id="JSzZBVWKuVzTFZrdCznC-24" value="&lt;font style=&quot;font-size: 10px;&quot;&gt;(1,N)&lt;/font&gt;" style="text;html=1;align=center;verticalAlign=middle;whiteSpace=wrap;rounded=0;" parent="1" vertex="1">
          <mxGeometry x="-380" y="445" width="30" height="20" as="geometry" />
        </mxCell>
        <mxCell id="JSzZBVWKuVzTFZrdCznC-25" value="&lt;font style=&quot;font-size: 10px;&quot;&gt;(1,1)&lt;/font&gt;" style="text;html=1;align=center;verticalAlign=middle;whiteSpace=wrap;rounded=0;" parent="1" vertex="1">
          <mxGeometry x="-281" y="445" width="30" height="20" as="geometry" />
        </mxCell>
      </root>
    </mxGraphModel>
  </diagram>
  <diagram id="bcAc6sGTrEgZ4JFlkwpp" name="NON ristrutturato">
    <mxGraphModel dx="2620" dy="1044" grid="1" gridSize="10" guides="1" tooltips="1" connect="1" arrows="1" fold="1" page="1" pageScale="1" pageWidth="827" pageHeight="1169" math="0" shadow="0">
      <root>
        <mxCell id="0" />
        <mxCell id="1" parent="0" />
        <mxCell id="f1E-nLE_ZABUSn7z6wg_-1" style="edgeStyle=orthogonalEdgeStyle;rounded=0;orthogonalLoop=1;jettySize=auto;html=1;entryX=1;entryY=0.5;entryDx=0;entryDy=0;endArrow=none;startFill=0;exitX=0.5;exitY=1;exitDx=0;exitDy=0;" edge="1" parent="1" source="f1E-nLE_ZABUSn7z6wg_-68" target="f1E-nLE_ZABUSn7z6wg_-19">
          <mxGeometry relative="1" as="geometry">
            <Array as="points">
              <mxPoint x="-227" y="1060" />
            </Array>
          </mxGeometry>
        </mxCell>
        <mxCell id="f1E-nLE_ZABUSn7z6wg_-2" value="Avviene in" style="rhombus;whiteSpace=wrap;html=1;" vertex="1" parent="1">
          <mxGeometry x="-477" y="250" width="120" height="60" as="geometry" />
        </mxCell>
        <mxCell id="f1E-nLE_ZABUSn7z6wg_-3" value="Gestisce" style="shape=rhombus;perimeter=rhombusPerimeter;whiteSpace=wrap;html=1;align=center;" vertex="1" parent="1">
          <mxGeometry x="-577" y="680" width="120" height="60" as="geometry" />
        </mxCell>
        <mxCell id="f1E-nLE_ZABUSn7z6wg_-4" value="" style="edgeStyle=orthogonalEdgeStyle;fontSize=12;html=1;endArrow=none;endFill=1;rounded=0;exitX=0.25;exitY=1;exitDx=0;exitDy=0;entryX=1;entryY=0.5;entryDx=0;entryDy=0;startFill=0;" edge="1" parent="1" source="f1E-nLE_ZABUSn7z6wg_-79" target="f1E-nLE_ZABUSn7z6wg_-3">
          <mxGeometry width="100" height="100" relative="1" as="geometry">
            <mxPoint x="-217" y="660" as="sourcePoint" />
            <mxPoint x="-77" y="830" as="targetPoint" />
          </mxGeometry>
        </mxCell>
        <mxCell id="f1E-nLE_ZABUSn7z6wg_-5" style="edgeStyle=orthogonalEdgeStyle;rounded=0;orthogonalLoop=1;jettySize=auto;html=1;entryX=0.5;entryY=1;entryDx=0;entryDy=0;endArrow=none;startFill=0;" edge="1" parent="1" source="f1E-nLE_ZABUSn7z6wg_-7" target="f1E-nLE_ZABUSn7z6wg_-35">
          <mxGeometry relative="1" as="geometry" />
        </mxCell>
        <mxCell id="f1E-nLE_ZABUSn7z6wg_-6" style="edgeStyle=orthogonalEdgeStyle;rounded=0;orthogonalLoop=1;jettySize=auto;html=1;endArrow=none;startFill=0;" edge="1" parent="1" source="f1E-nLE_ZABUSn7z6wg_-7" target="f1E-nLE_ZABUSn7z6wg_-61">
          <mxGeometry relative="1" as="geometry" />
        </mxCell>
        <mxCell id="f1E-nLE_ZABUSn7z6wg_-7" value="Fa riferimento" style="shape=rhombus;perimeter=rhombusPerimeter;whiteSpace=wrap;html=1;align=center;" vertex="1" parent="1">
          <mxGeometry x="-697" y="560.63" width="120" height="60" as="geometry" />
        </mxCell>
        <mxCell id="f1E-nLE_ZABUSn7z6wg_-8" value="" style="edgeStyle=orthogonalEdgeStyle;fontSize=12;html=1;endArrow=none;rounded=0;exitX=0.885;exitY=-0.011;exitDx=0;exitDy=0;entryX=0;entryY=0.5;entryDx=0;entryDy=0;startFill=0;exitPerimeter=0;" edge="1" parent="1" source="f1E-nLE_ZABUSn7z6wg_-35" target="f1E-nLE_ZABUSn7z6wg_-2">
          <mxGeometry width="100" height="100" relative="1" as="geometry">
            <mxPoint x="-487" y="670" as="sourcePoint" />
            <mxPoint x="-487" y="454" as="targetPoint" />
          </mxGeometry>
        </mxCell>
        <mxCell id="f1E-nLE_ZABUSn7z6wg_-9" value="" style="edgeStyle=orthogonalEdgeStyle;fontSize=12;html=1;endArrow=none;rounded=0;entryX=1;entryY=0.5;entryDx=0;entryDy=0;exitX=0.25;exitY=1;exitDx=0;exitDy=0;startFill=0;" edge="1" parent="1" source="f1E-nLE_ZABUSn7z6wg_-58" target="f1E-nLE_ZABUSn7z6wg_-2">
          <mxGeometry width="100" height="100" relative="1" as="geometry">
            <mxPoint x="-247" y="660" as="sourcePoint" />
            <mxPoint x="-187" y="570" as="targetPoint" />
          </mxGeometry>
        </mxCell>
        <mxCell id="f1E-nLE_ZABUSn7z6wg_-10" style="edgeStyle=orthogonalEdgeStyle;rounded=0;orthogonalLoop=1;jettySize=auto;html=1;entryX=0.5;entryY=0;entryDx=0;entryDy=0;endArrow=none;startFill=0;" edge="1" parent="1" source="f1E-nLE_ZABUSn7z6wg_-11" target="f1E-nLE_ZABUSn7z6wg_-68">
          <mxGeometry relative="1" as="geometry" />
        </mxCell>
        <mxCell id="f1E-nLE_ZABUSn7z6wg_-11" value="Tecnico" style="whiteSpace=wrap;html=1;" vertex="1" parent="1">
          <mxGeometry x="-201" y="600" width="120" height="60" as="geometry" />
        </mxCell>
        <mxCell id="f1E-nLE_ZABUSn7z6wg_-12" style="edgeStyle=orthogonalEdgeStyle;rounded=0;orthogonalLoop=1;jettySize=auto;html=1;exitX=0.5;exitY=0;exitDx=0;exitDy=0;entryX=0.5;entryY=1;entryDx=0;entryDy=0;endArrow=none;startFill=0;" edge="1" parent="1" source="f1E-nLE_ZABUSn7z6wg_-68" target="f1E-nLE_ZABUSn7z6wg_-13">
          <mxGeometry relative="1" as="geometry">
            <mxPoint x="-98" y="568" as="sourcePoint" />
            <mxPoint x="-108" y="660" as="targetPoint" />
          </mxGeometry>
        </mxCell>
        <mxCell id="f1E-nLE_ZABUSn7z6wg_-13" value="Allievo" style="whiteSpace=wrap;html=1;" vertex="1" parent="1">
          <mxGeometry x="-287" y="520" width="120" height="60" as="geometry" />
        </mxCell>
        <mxCell id="f1E-nLE_ZABUSn7z6wg_-14" style="edgeStyle=orthogonalEdgeStyle;rounded=0;orthogonalLoop=1;jettySize=auto;html=1;entryX=0.5;entryY=0;entryDx=0;entryDy=0;endArrow=none;startFill=0;" edge="1" parent="1" source="f1E-nLE_ZABUSn7z6wg_-15" target="f1E-nLE_ZABUSn7z6wg_-68">
          <mxGeometry relative="1" as="geometry" />
        </mxCell>
        <mxCell id="f1E-nLE_ZABUSn7z6wg_-15" value="Docente" style="whiteSpace=wrap;html=1;" vertex="1" parent="1">
          <mxGeometry x="-371" y="600" width="120" height="60" as="geometry" />
        </mxCell>
        <mxCell id="f1E-nLE_ZABUSn7z6wg_-16" style="edgeStyle=orthogonalEdgeStyle;rounded=0;orthogonalLoop=1;jettySize=auto;html=1;entryX=0.5;entryY=0;entryDx=0;entryDy=0;endArrow=none;startFill=0;" edge="1" parent="1" source="f1E-nLE_ZABUSn7z6wg_-17" target="f1E-nLE_ZABUSn7z6wg_-35">
          <mxGeometry relative="1" as="geometry">
            <mxPoint x="-647" y="310" as="targetPoint" />
            <Array as="points">
              <mxPoint x="-647" y="321" />
            </Array>
          </mxGeometry>
        </mxCell>
        <mxCell id="f1E-nLE_ZABUSn7z6wg_-17" value="Sta in" style="shape=rhombus;perimeter=rhombusPerimeter;whiteSpace=wrap;html=1;align=center;" vertex="1" parent="1">
          <mxGeometry x="-707" y="205" width="120" height="60" as="geometry" />
        </mxCell>
        <mxCell id="f1E-nLE_ZABUSn7z6wg_-18" style="edgeStyle=orthogonalEdgeStyle;rounded=0;orthogonalLoop=1;jettySize=auto;html=1;entryX=0.5;entryY=1;entryDx=0;entryDy=0;endArrow=none;startFill=0;" edge="1" parent="1" source="f1E-nLE_ZABUSn7z6wg_-19" target="f1E-nLE_ZABUSn7z6wg_-61">
          <mxGeometry relative="1" as="geometry" />
        </mxCell>
        <mxCell id="f1E-nLE_ZABUSn7z6wg_-19" value="Iscritto a" style="shape=rhombus;perimeter=rhombusPerimeter;whiteSpace=wrap;html=1;align=center;" vertex="1" parent="1">
          <mxGeometry x="-697" y="1030" width="120" height="60" as="geometry" />
        </mxCell>
        <mxCell id="f1E-nLE_ZABUSn7z6wg_-20" style="edgeStyle=orthogonalEdgeStyle;rounded=0;orthogonalLoop=1;jettySize=auto;html=1;endArrow=none;startFill=0;" edge="1" parent="1" source="f1E-nLE_ZABUSn7z6wg_-22" target="f1E-nLE_ZABUSn7z6wg_-79">
          <mxGeometry relative="1" as="geometry" />
        </mxCell>
        <mxCell id="f1E-nLE_ZABUSn7z6wg_-21" style="edgeStyle=orthogonalEdgeStyle;rounded=0;orthogonalLoop=1;jettySize=auto;html=1;entryX=0.5;entryY=1;entryDx=0;entryDy=0;endArrow=none;startFill=0;exitX=0.5;exitY=0;exitDx=0;exitDy=0;" edge="1" parent="1" source="f1E-nLE_ZABUSn7z6wg_-22" target="f1E-nLE_ZABUSn7z6wg_-58">
          <mxGeometry relative="1" as="geometry">
            <Array as="points">
              <mxPoint x="-401" y="340" />
              <mxPoint x="-201" y="340" />
            </Array>
          </mxGeometry>
        </mxCell>
        <mxCell id="f1E-nLE_ZABUSn7z6wg_-22" value="Prenota" style="shape=rhombus;perimeter=rhombusPerimeter;whiteSpace=wrap;html=1;align=center;" vertex="1" parent="1">
          <mxGeometry x="-461" y="390" width="120" height="60" as="geometry" />
        </mxCell>
        <mxCell id="f1E-nLE_ZABUSn7z6wg_-23" style="edgeStyle=orthogonalEdgeStyle;rounded=0;orthogonalLoop=1;jettySize=auto;html=1;entryX=0.5;entryY=1;entryDx=0;entryDy=0;endArrow=none;startFill=0;" edge="1" parent="1" source="f1E-nLE_ZABUSn7z6wg_-27" target="f1E-nLE_ZABUSn7z6wg_-79">
          <mxGeometry relative="1" as="geometry" />
        </mxCell>
        <mxCell id="f1E-nLE_ZABUSn7z6wg_-24" style="edgeStyle=orthogonalEdgeStyle;rounded=0;orthogonalLoop=1;jettySize=auto;html=1;entryX=0.25;entryY=1;entryDx=0;entryDy=0;endArrow=none;startFill=0;" edge="1" parent="1" source="f1E-nLE_ZABUSn7z6wg_-27" target="f1E-nLE_ZABUSn7z6wg_-68">
          <mxGeometry relative="1" as="geometry" />
        </mxCell>
        <mxCell id="f1E-nLE_ZABUSn7z6wg_-25" style="edgeStyle=orthogonalEdgeStyle;rounded=0;orthogonalLoop=1;jettySize=auto;html=1;exitX=1;exitY=1;exitDx=0;exitDy=0;endArrow=oval;endFill=0;" edge="1" parent="1" source="f1E-nLE_ZABUSn7z6wg_-27">
          <mxGeometry relative="1" as="geometry">
            <mxPoint x="-340" y="960" as="targetPoint" />
          </mxGeometry>
        </mxCell>
        <mxCell id="f1E-nLE_ZABUSn7z6wg_-26" value="Motivazione" style="edgeLabel;html=1;align=left;verticalAlign=middle;resizable=0;points=[];" vertex="1" connectable="0" parent="f1E-nLE_ZABUSn7z6wg_-25">
          <mxGeometry x="0.9866" y="-1" relative="1" as="geometry">
            <mxPoint x="10" y="-1" as="offset" />
          </mxGeometry>
        </mxCell>
        <mxCell id="f1E-nLE_ZABUSn7z6wg_-27" value="Invita" style="shape=rhombus;perimeter=rhombusPerimeter;whiteSpace=wrap;html=1;align=center;" vertex="1" parent="1">
          <mxGeometry x="-461" y="915" width="120" height="60" as="geometry" />
        </mxCell>
        <mxCell id="f1E-nLE_ZABUSn7z6wg_-28" style="edgeStyle=orthogonalEdgeStyle;rounded=0;orthogonalLoop=1;jettySize=auto;html=1;exitX=1;exitY=0.5;exitDx=0;exitDy=0;entryX=0;entryY=0;entryDx=0;entryDy=0;endArrow=none;startFill=0;startArrow=oval;" edge="1" parent="1" source="f1E-nLE_ZABUSn7z6wg_-29" target="f1E-nLE_ZABUSn7z6wg_-27">
          <mxGeometry relative="1" as="geometry" />
        </mxCell>
        <mxCell id="f1E-nLE_ZABUSn7z6wg_-29" value="Accettazione" style="text;strokeColor=none;fillColor=none;spacingLeft=4;spacingRight=4;overflow=hidden;rotatable=0;points=[[0,0.5],[1,0.5]];portConstraint=eastwest;fontSize=12;whiteSpace=wrap;html=1;align=right;" vertex="1" parent="1">
          <mxGeometry x="-550" y="914.38" width="80" height="30" as="geometry" />
        </mxCell>
        <mxCell id="f1E-nLE_ZABUSn7z6wg_-30" style="edgeStyle=orthogonalEdgeStyle;rounded=0;orthogonalLoop=1;jettySize=auto;html=1;exitX=1;exitY=0.5;exitDx=0;exitDy=0;entryX=0;entryY=1;entryDx=0;entryDy=0;endArrow=none;startFill=0;startArrow=oval;" edge="1" parent="1" source="f1E-nLE_ZABUSn7z6wg_-31" target="f1E-nLE_ZABUSn7z6wg_-27">
          <mxGeometry relative="1" as="geometry" />
        </mxCell>
        <mxCell id="f1E-nLE_ZABUSn7z6wg_-31" value="DataRisposta" style="text;strokeColor=none;fillColor=none;spacingLeft=4;spacingRight=4;overflow=hidden;rotatable=0;points=[[0,0.5],[1,0.5]];portConstraint=eastwest;fontSize=12;whiteSpace=wrap;html=1;align=right;" vertex="1" parent="1">
          <mxGeometry x="-570" y="945" width="100" height="30" as="geometry" />
        </mxCell>
        <mxCell id="f1E-nLE_ZABUSn7z6wg_-32" style="edgeStyle=orthogonalEdgeStyle;rounded=0;orthogonalLoop=1;jettySize=auto;html=1;exitX=0.5;exitY=0;exitDx=0;exitDy=0;entryX=0.416;entryY=1;entryDx=0;entryDy=0;entryPerimeter=0;endArrow=none;startFill=0;" edge="1" parent="1" source="f1E-nLE_ZABUSn7z6wg_-17" target="f1E-nLE_ZABUSn7z6wg_-41">
          <mxGeometry relative="1" as="geometry" />
        </mxCell>
        <mxCell id="f1E-nLE_ZABUSn7z6wg_-33" style="edgeStyle=orthogonalEdgeStyle;rounded=0;orthogonalLoop=1;jettySize=auto;html=1;entryX=0.845;entryY=0.063;entryDx=0;entryDy=0;entryPerimeter=0;endArrow=none;startFill=0;" edge="1" parent="1" source="f1E-nLE_ZABUSn7z6wg_-3" target="f1E-nLE_ZABUSn7z6wg_-61">
          <mxGeometry relative="1" as="geometry">
            <Array as="points">
              <mxPoint x="-610" y="710" />
              <mxPoint x="-610" y="858" />
            </Array>
          </mxGeometry>
        </mxCell>
        <mxCell id="f1E-nLE_ZABUSn7z6wg_-34" value="" style="group" vertex="1" connectable="0" parent="1">
          <mxGeometry x="-827" y="321.25" width="250" height="60" as="geometry" />
        </mxCell>
        <mxCell id="f1E-nLE_ZABUSn7z6wg_-35" value="Sala prove" style="rounded=0;whiteSpace=wrap;html=1;" vertex="1" parent="f1E-nLE_ZABUSn7z6wg_-34">
          <mxGeometry x="130" width="120" height="60" as="geometry" />
        </mxCell>
        <mxCell id="f1E-nLE_ZABUSn7z6wg_-36" style="edgeStyle=orthogonalEdgeStyle;rounded=0;orthogonalLoop=1;jettySize=auto;html=1;entryX=0;entryY=0.25;entryDx=0;entryDy=0;endArrow=none;startFill=1;startArrow=oval;" edge="1" parent="f1E-nLE_ZABUSn7z6wg_-34" source="f1E-nLE_ZABUSn7z6wg_-37" target="f1E-nLE_ZABUSn7z6wg_-35">
          <mxGeometry relative="1" as="geometry" />
        </mxCell>
        <mxCell id="f1E-nLE_ZABUSn7z6wg_-37" value="&lt;u&gt;NumAula&lt;/u&gt;" style="text;strokeColor=none;fillColor=none;spacingLeft=4;spacingRight=4;overflow=hidden;rotatable=0;points=[[0,0.5],[1,0.5]];portConstraint=eastwest;fontSize=12;whiteSpace=wrap;html=1;align=right;" vertex="1" parent="f1E-nLE_ZABUSn7z6wg_-34">
          <mxGeometry x="20" width="80" height="30" as="geometry" />
        </mxCell>
        <mxCell id="f1E-nLE_ZABUSn7z6wg_-38" style="edgeStyle=orthogonalEdgeStyle;rounded=0;orthogonalLoop=1;jettySize=auto;html=1;entryX=0;entryY=0.5;entryDx=0;entryDy=0;endArrow=none;endFill=0;startArrow=oval;startFill=0;" edge="1" parent="f1E-nLE_ZABUSn7z6wg_-34" source="f1E-nLE_ZABUSn7z6wg_-39" target="f1E-nLE_ZABUSn7z6wg_-35">
          <mxGeometry relative="1" as="geometry" />
        </mxCell>
        <mxCell id="f1E-nLE_ZABUSn7z6wg_-39" value="Capienza" style="text;strokeColor=none;fillColor=none;spacingLeft=4;spacingRight=4;overflow=hidden;rotatable=0;points=[[0,0.5],[1,0.5]];portConstraint=eastwest;fontSize=12;whiteSpace=wrap;html=1;align=right;" vertex="1" parent="f1E-nLE_ZABUSn7z6wg_-34">
          <mxGeometry x="30" y="15" width="70" height="30" as="geometry" />
        </mxCell>
        <mxCell id="f1E-nLE_ZABUSn7z6wg_-40" value="" style="group" vertex="1" connectable="0" parent="1">
          <mxGeometry x="-807" y="80" width="230" height="60" as="geometry" />
        </mxCell>
        <mxCell id="f1E-nLE_ZABUSn7z6wg_-41" value="Strumentazione" style="whiteSpace=wrap;html=1;" vertex="1" parent="f1E-nLE_ZABUSn7z6wg_-40">
          <mxGeometry x="110" width="120" height="60" as="geometry" />
        </mxCell>
        <mxCell id="f1E-nLE_ZABUSn7z6wg_-42" style="edgeStyle=orthogonalEdgeStyle;rounded=0;orthogonalLoop=1;jettySize=auto;html=1;entryX=0;entryY=0.25;entryDx=0;entryDy=0;startArrow=oval;startFill=1;endArrow=none;endFill=0;" edge="1" parent="f1E-nLE_ZABUSn7z6wg_-40" source="f1E-nLE_ZABUSn7z6wg_-43" target="f1E-nLE_ZABUSn7z6wg_-41">
          <mxGeometry relative="1" as="geometry" />
        </mxCell>
        <mxCell id="f1E-nLE_ZABUSn7z6wg_-43" value="&lt;u&gt;ID&lt;/u&gt;" style="text;strokeColor=none;fillColor=none;spacingLeft=4;spacingRight=4;overflow=hidden;rotatable=0;points=[[0,0.5],[1,0.5]];portConstraint=eastwest;fontSize=12;whiteSpace=wrap;html=1;align=right;" vertex="1" parent="f1E-nLE_ZABUSn7z6wg_-40">
          <mxGeometry x="50" width="30" height="30" as="geometry" />
        </mxCell>
        <mxCell id="f1E-nLE_ZABUSn7z6wg_-44" style="edgeStyle=orthogonalEdgeStyle;rounded=0;orthogonalLoop=1;jettySize=auto;html=1;entryX=0;entryY=0.5;entryDx=0;entryDy=0;endArrow=none;endFill=0;startArrow=oval;startFill=0;" edge="1" parent="f1E-nLE_ZABUSn7z6wg_-40" source="f1E-nLE_ZABUSn7z6wg_-45" target="f1E-nLE_ZABUSn7z6wg_-41">
          <mxGeometry relative="1" as="geometry" />
        </mxCell>
        <mxCell id="f1E-nLE_ZABUSn7z6wg_-45" value="Tipologia" style="text;strokeColor=none;fillColor=none;spacingLeft=4;spacingRight=4;overflow=hidden;rotatable=0;points=[[0,0.5],[1,0.5]];portConstraint=eastwest;fontSize=12;whiteSpace=wrap;html=1;align=right;" vertex="1" parent="f1E-nLE_ZABUSn7z6wg_-40">
          <mxGeometry x="10" y="15" width="70" height="30" as="geometry" />
        </mxCell>
        <mxCell id="f1E-nLE_ZABUSn7z6wg_-46" style="edgeStyle=orthogonalEdgeStyle;rounded=0;orthogonalLoop=1;jettySize=auto;html=1;entryX=0;entryY=0.75;entryDx=0;entryDy=0;endArrow=none;endFill=0;startArrow=oval;startFill=0;" edge="1" parent="f1E-nLE_ZABUSn7z6wg_-40" source="f1E-nLE_ZABUSn7z6wg_-47" target="f1E-nLE_ZABUSn7z6wg_-41">
          <mxGeometry relative="1" as="geometry" />
        </mxCell>
        <mxCell id="f1E-nLE_ZABUSn7z6wg_-47" value="Descrizione" style="text;strokeColor=none;fillColor=none;spacingLeft=4;spacingRight=4;overflow=hidden;rotatable=0;points=[[0,0.5],[1,0.5]];portConstraint=eastwest;fontSize=12;whiteSpace=wrap;html=1;align=right;" vertex="1" parent="f1E-nLE_ZABUSn7z6wg_-40">
          <mxGeometry y="30" width="80" height="30" as="geometry" />
        </mxCell>
        <mxCell id="f1E-nLE_ZABUSn7z6wg_-48" value="" style="group" vertex="1" connectable="0" parent="1">
          <mxGeometry x="-401" y="90" width="360" height="60" as="geometry" />
        </mxCell>
        <mxCell id="f1E-nLE_ZABUSn7z6wg_-49" style="edgeStyle=orthogonalEdgeStyle;rounded=0;orthogonalLoop=1;jettySize=auto;html=1;entryX=1;entryY=0.25;entryDx=0;entryDy=0;endArrow=none;startFill=0;startArrow=oval;" edge="1" parent="f1E-nLE_ZABUSn7z6wg_-48" source="f1E-nLE_ZABUSn7z6wg_-50" target="f1E-nLE_ZABUSn7z6wg_-58">
          <mxGeometry relative="1" as="geometry" />
        </mxCell>
        <mxCell id="f1E-nLE_ZABUSn7z6wg_-50" value="OraInizio" style="text;strokeColor=none;fillColor=none;spacingLeft=4;spacingRight=4;overflow=hidden;rotatable=0;points=[[0,0.5],[1,0.5]];portConstraint=eastwest;fontSize=12;whiteSpace=wrap;html=1;align=left;" vertex="1" parent="f1E-nLE_ZABUSn7z6wg_-48">
          <mxGeometry x="290" width="60" height="30" as="geometry" />
        </mxCell>
        <mxCell id="f1E-nLE_ZABUSn7z6wg_-51" style="edgeStyle=orthogonalEdgeStyle;rounded=0;orthogonalLoop=1;jettySize=auto;html=1;entryX=0;entryY=0.75;entryDx=0;entryDy=0;endArrow=none;startFill=0;startArrow=oval;" edge="1" parent="f1E-nLE_ZABUSn7z6wg_-48" source="f1E-nLE_ZABUSn7z6wg_-52" target="f1E-nLE_ZABUSn7z6wg_-58">
          <mxGeometry relative="1" as="geometry">
            <mxPoint x="120" y="55" as="targetPoint" />
          </mxGeometry>
        </mxCell>
        <mxCell id="f1E-nLE_ZABUSn7z6wg_-52" value="DataPren" style="text;strokeColor=none;fillColor=none;spacingLeft=4;spacingRight=4;overflow=hidden;rotatable=0;points=[[0,0.5],[1,0.5]];portConstraint=eastwest;fontSize=12;whiteSpace=wrap;html=1;align=right;" vertex="1" parent="f1E-nLE_ZABUSn7z6wg_-48">
          <mxGeometry x="40" y="30" width="70" height="30" as="geometry" />
        </mxCell>
        <mxCell id="f1E-nLE_ZABUSn7z6wg_-53" style="edgeStyle=orthogonalEdgeStyle;rounded=0;orthogonalLoop=1;jettySize=auto;html=1;entryX=0;entryY=0.5;entryDx=0;entryDy=0;endArrow=none;startFill=0;startArrow=oval;" edge="1" parent="f1E-nLE_ZABUSn7z6wg_-48" source="f1E-nLE_ZABUSn7z6wg_-54" target="f1E-nLE_ZABUSn7z6wg_-58">
          <mxGeometry relative="1" as="geometry" />
        </mxCell>
        <mxCell id="f1E-nLE_ZABUSn7z6wg_-54" value="Attivita" style="text;strokeColor=none;fillColor=none;spacingLeft=4;spacingRight=4;overflow=hidden;rotatable=0;points=[[0,0.5],[1,0.5]];portConstraint=eastwest;fontSize=12;whiteSpace=wrap;html=1;align=right;" vertex="1" parent="f1E-nLE_ZABUSn7z6wg_-48">
          <mxGeometry x="60" y="15" width="50" height="30" as="geometry" />
        </mxCell>
        <mxCell id="f1E-nLE_ZABUSn7z6wg_-55" value="OraFine" style="text;strokeColor=none;fillColor=none;spacingLeft=4;spacingRight=4;overflow=hidden;rotatable=0;points=[[0,0.5],[1,0.5]];portConstraint=eastwest;fontSize=12;whiteSpace=wrap;html=1;" vertex="1" parent="f1E-nLE_ZABUSn7z6wg_-48">
          <mxGeometry x="290" y="20" width="70" height="30" as="geometry" />
        </mxCell>
        <mxCell id="f1E-nLE_ZABUSn7z6wg_-56" style="edgeStyle=orthogonalEdgeStyle;rounded=0;orthogonalLoop=1;jettySize=auto;html=1;entryX=0;entryY=0.25;entryDx=0;entryDy=0;endArrow=none;startFill=1;startArrow=oval;" edge="1" parent="f1E-nLE_ZABUSn7z6wg_-48" source="f1E-nLE_ZABUSn7z6wg_-57" target="f1E-nLE_ZABUSn7z6wg_-58">
          <mxGeometry relative="1" as="geometry" />
        </mxCell>
        <mxCell id="f1E-nLE_ZABUSn7z6wg_-57" value="&lt;u&gt;IDPrenotazione&lt;/u&gt;" style="text;strokeColor=none;fillColor=none;spacingLeft=4;spacingRight=4;overflow=hidden;rotatable=0;points=[[0,0.5],[1,0.5]];portConstraint=eastwest;fontSize=12;whiteSpace=wrap;html=1;align=right;" vertex="1" parent="f1E-nLE_ZABUSn7z6wg_-48">
          <mxGeometry x="10" width="100" height="30" as="geometry" />
        </mxCell>
        <mxCell id="f1E-nLE_ZABUSn7z6wg_-58" value="Prenotazione" style="whiteSpace=wrap;html=1;" vertex="1" parent="f1E-nLE_ZABUSn7z6wg_-48">
          <mxGeometry x="140" width="120" height="60" as="geometry" />
        </mxCell>
        <mxCell id="f1E-nLE_ZABUSn7z6wg_-59" style="edgeStyle=orthogonalEdgeStyle;rounded=0;orthogonalLoop=1;jettySize=auto;html=1;entryX=0.998;entryY=0.584;entryDx=0;entryDy=0;entryPerimeter=0;endArrow=none;startFill=0;startArrow=oval;" edge="1" parent="f1E-nLE_ZABUSn7z6wg_-48" source="f1E-nLE_ZABUSn7z6wg_-55" target="f1E-nLE_ZABUSn7z6wg_-58">
          <mxGeometry relative="1" as="geometry" />
        </mxCell>
        <mxCell id="f1E-nLE_ZABUSn7z6wg_-60" value="" style="group" vertex="1" connectable="0" parent="1">
          <mxGeometry x="-797" y="848.13" width="220" height="66.25" as="geometry" />
        </mxCell>
        <mxCell id="f1E-nLE_ZABUSn7z6wg_-61" value="Settore" style="whiteSpace=wrap;html=1;" vertex="1" parent="f1E-nLE_ZABUSn7z6wg_-60">
          <mxGeometry x="100" y="6.25" width="120" height="60" as="geometry" />
        </mxCell>
        <mxCell id="f1E-nLE_ZABUSn7z6wg_-62" style="edgeStyle=orthogonalEdgeStyle;rounded=0;orthogonalLoop=1;jettySize=auto;html=1;entryX=0;entryY=0.5;entryDx=0;entryDy=0;endArrow=none;startFill=0;startArrow=oval;" edge="1" parent="f1E-nLE_ZABUSn7z6wg_-60" source="f1E-nLE_ZABUSn7z6wg_-63" target="f1E-nLE_ZABUSn7z6wg_-61">
          <mxGeometry relative="1" as="geometry" />
        </mxCell>
        <mxCell id="f1E-nLE_ZABUSn7z6wg_-63" value="Tipologia" style="text;strokeColor=none;fillColor=none;spacingLeft=4;spacingRight=4;overflow=hidden;rotatable=0;points=[[0,0.5],[1,0.5]];portConstraint=eastwest;fontSize=12;whiteSpace=wrap;html=1;align=right;" vertex="1" parent="f1E-nLE_ZABUSn7z6wg_-60">
          <mxGeometry x="10" y="21.25" width="60" height="30" as="geometry" />
        </mxCell>
        <mxCell id="f1E-nLE_ZABUSn7z6wg_-64" style="edgeStyle=orthogonalEdgeStyle;rounded=0;orthogonalLoop=1;jettySize=auto;html=1;entryX=0;entryY=0.25;entryDx=0;entryDy=0;endArrow=none;startFill=1;startArrow=oval;" edge="1" parent="f1E-nLE_ZABUSn7z6wg_-60" source="f1E-nLE_ZABUSn7z6wg_-65" target="f1E-nLE_ZABUSn7z6wg_-61">
          <mxGeometry relative="1" as="geometry" />
        </mxCell>
        <mxCell id="f1E-nLE_ZABUSn7z6wg_-65" value="&lt;u&gt;Nome&lt;/u&gt;" style="text;strokeColor=none;fillColor=none;spacingLeft=4;spacingRight=4;overflow=hidden;rotatable=0;points=[[0,0.5],[1,0.5]];portConstraint=eastwest;fontSize=12;whiteSpace=wrap;html=1;align=right;" vertex="1" parent="f1E-nLE_ZABUSn7z6wg_-60">
          <mxGeometry x="10" y="6.25" width="60" height="30" as="geometry" />
        </mxCell>
        <mxCell id="f1E-nLE_ZABUSn7z6wg_-66" value="" style="group" vertex="1" connectable="0" parent="1">
          <mxGeometry x="-396" y="820" width="355" height="60" as="geometry" />
        </mxCell>
        <mxCell id="f1E-nLE_ZABUSn7z6wg_-67" style="edgeStyle=orthogonalEdgeStyle;rounded=0;orthogonalLoop=1;jettySize=auto;html=1;startArrow=none;startFill=0;endArrow=oval;endFill=0;" edge="1" parent="f1E-nLE_ZABUSn7z6wg_-66" source="f1E-nLE_ZABUSn7z6wg_-68" target="f1E-nLE_ZABUSn7z6wg_-71">
          <mxGeometry relative="1" as="geometry" />
        </mxCell>
        <mxCell id="f1E-nLE_ZABUSn7z6wg_-68" value="Iscritto" style="rounded=0;whiteSpace=wrap;html=1;" vertex="1" parent="f1E-nLE_ZABUSn7z6wg_-66">
          <mxGeometry x="109" width="120" height="60" as="geometry" />
        </mxCell>
        <mxCell id="f1E-nLE_ZABUSn7z6wg_-69" style="edgeStyle=orthogonalEdgeStyle;rounded=0;orthogonalLoop=1;jettySize=auto;html=1;entryX=0;entryY=0.75;entryDx=0;entryDy=0;startArrow=oval;startFill=0;endArrow=none;" edge="1" parent="f1E-nLE_ZABUSn7z6wg_-66" source="f1E-nLE_ZABUSn7z6wg_-70" target="f1E-nLE_ZABUSn7z6wg_-68">
          <mxGeometry relative="1" as="geometry" />
        </mxCell>
        <mxCell id="f1E-nLE_ZABUSn7z6wg_-70" value="Nome" style="text;strokeColor=none;fillColor=none;spacingLeft=4;spacingRight=4;overflow=hidden;rotatable=0;points=[[0,0.5],[1,0.5]];portConstraint=eastwest;fontSize=12;whiteSpace=wrap;html=1;align=right;" vertex="1" parent="f1E-nLE_ZABUSn7z6wg_-66">
          <mxGeometry x="20" y="30" width="50" height="30" as="geometry" />
        </mxCell>
        <mxCell id="f1E-nLE_ZABUSn7z6wg_-71" value="Cognome" style="text;strokeColor=none;fillColor=none;spacingLeft=4;spacingRight=4;overflow=hidden;rotatable=0;points=[[0,0.5],[1,0.5]];portConstraint=eastwest;fontSize=12;whiteSpace=wrap;html=1;align=right;" vertex="1" parent="f1E-nLE_ZABUSn7z6wg_-66">
          <mxGeometry y="15" width="70" height="30" as="geometry" />
        </mxCell>
        <mxCell id="f1E-nLE_ZABUSn7z6wg_-72" style="edgeStyle=orthogonalEdgeStyle;rounded=0;orthogonalLoop=1;jettySize=auto;html=1;entryX=1;entryY=0.25;entryDx=0;entryDy=0;endArrow=none;startFill=0;startArrow=oval;" edge="1" parent="f1E-nLE_ZABUSn7z6wg_-66" source="f1E-nLE_ZABUSn7z6wg_-73" target="f1E-nLE_ZABUSn7z6wg_-68">
          <mxGeometry relative="1" as="geometry" />
        </mxCell>
        <mxCell id="f1E-nLE_ZABUSn7z6wg_-73" value="DataNascita" style="text;strokeColor=none;fillColor=none;spacingLeft=4;spacingRight=4;overflow=hidden;rotatable=0;points=[[0,0.5],[1,0.5]];portConstraint=eastwest;fontSize=12;whiteSpace=wrap;html=1;" vertex="1" parent="f1E-nLE_ZABUSn7z6wg_-66">
          <mxGeometry x="260" width="95" height="30" as="geometry" />
        </mxCell>
        <mxCell id="f1E-nLE_ZABUSn7z6wg_-74" style="edgeStyle=orthogonalEdgeStyle;rounded=0;orthogonalLoop=1;jettySize=auto;html=1;entryX=0;entryY=0.25;entryDx=0;entryDy=0;endArrow=none;startFill=1;startArrow=oval;" edge="1" parent="f1E-nLE_ZABUSn7z6wg_-66" source="f1E-nLE_ZABUSn7z6wg_-75" target="f1E-nLE_ZABUSn7z6wg_-68">
          <mxGeometry relative="1" as="geometry" />
        </mxCell>
        <mxCell id="f1E-nLE_ZABUSn7z6wg_-75" value="&lt;u&gt;Email&lt;/u&gt;" style="text;strokeColor=none;fillColor=none;spacingLeft=4;spacingRight=4;overflow=hidden;rotatable=0;points=[[0,0.5],[1,0.5]];portConstraint=eastwest;fontSize=12;whiteSpace=wrap;html=1;align=right;" vertex="1" parent="f1E-nLE_ZABUSn7z6wg_-66">
          <mxGeometry x="25" width="45" height="30" as="geometry" />
        </mxCell>
        <mxCell id="f1E-nLE_ZABUSn7z6wg_-76" style="edgeStyle=orthogonalEdgeStyle;rounded=0;orthogonalLoop=1;jettySize=auto;html=1;entryX=1;entryY=0.5;entryDx=0;entryDy=0;endArrow=none;startFill=0;startArrow=oval;" edge="1" parent="f1E-nLE_ZABUSn7z6wg_-66" source="f1E-nLE_ZABUSn7z6wg_-77" target="f1E-nLE_ZABUSn7z6wg_-68">
          <mxGeometry relative="1" as="geometry" />
        </mxCell>
        <mxCell id="f1E-nLE_ZABUSn7z6wg_-77" value="Foto" style="text;strokeColor=none;fillColor=none;spacingLeft=4;spacingRight=4;overflow=hidden;rotatable=0;points=[[0,0.5],[1,0.5]];portConstraint=eastwest;fontSize=12;whiteSpace=wrap;html=1;" vertex="1" parent="f1E-nLE_ZABUSn7z6wg_-66">
          <mxGeometry x="260" y="15" width="40" height="30" as="geometry" />
        </mxCell>
        <mxCell id="f1E-nLE_ZABUSn7z6wg_-78" value="" style="group" vertex="1" connectable="0" parent="1">
          <mxGeometry x="-611" y="480" width="270" height="60" as="geometry" />
        </mxCell>
        <mxCell id="f1E-nLE_ZABUSn7z6wg_-79" value="Responsabile" style="rounded=0;whiteSpace=wrap;html=1;" vertex="1" parent="f1E-nLE_ZABUSn7z6wg_-78">
          <mxGeometry x="150" width="120" height="60" as="geometry" />
        </mxCell>
        <mxCell id="f1E-nLE_ZABUSn7z6wg_-80" style="edgeStyle=orthogonalEdgeStyle;rounded=0;orthogonalLoop=1;jettySize=auto;html=1;entryX=0;entryY=0.25;entryDx=0;entryDy=0;endArrow=none;startFill=0;startArrow=oval;" edge="1" parent="f1E-nLE_ZABUSn7z6wg_-78" source="f1E-nLE_ZABUSn7z6wg_-81" target="f1E-nLE_ZABUSn7z6wg_-79">
          <mxGeometry relative="1" as="geometry" />
        </mxCell>
        <mxCell id="f1E-nLE_ZABUSn7z6wg_-81" value="InizioIncarico" style="text;strokeColor=none;fillColor=none;spacingLeft=4;spacingRight=4;overflow=hidden;rotatable=0;points=[[0,0.5],[1,0.5]];portConstraint=eastwest;fontSize=12;whiteSpace=wrap;html=1;align=right;" vertex="1" parent="f1E-nLE_ZABUSn7z6wg_-78">
          <mxGeometry width="118.75" height="30" as="geometry" />
        </mxCell>
        <mxCell id="f1E-nLE_ZABUSn7z6wg_-82" style="edgeStyle=orthogonalEdgeStyle;rounded=0;orthogonalLoop=1;jettySize=auto;html=1;exitX=0.75;exitY=1;exitDx=0;exitDy=0;entryX=0.5;entryY=0;entryDx=0;entryDy=0;endArrow=none;startFill=0;" edge="1" parent="1" source="f1E-nLE_ZABUSn7z6wg_-79" target="f1E-nLE_ZABUSn7z6wg_-15">
          <mxGeometry relative="1" as="geometry" />
        </mxCell>
        <mxCell id="f1E-nLE_ZABUSn7z6wg_-83" style="edgeStyle=orthogonalEdgeStyle;rounded=0;orthogonalLoop=1;jettySize=auto;html=1;entryX=0.807;entryY=1.008;entryDx=0;entryDy=0;entryPerimeter=0;endArrow=none;startFill=0;exitX=0.5;exitY=1;exitDx=0;exitDy=0;" edge="1" parent="1" source="f1E-nLE_ZABUSn7z6wg_-85" target="f1E-nLE_ZABUSn7z6wg_-68">
          <mxGeometry relative="1" as="geometry">
            <Array as="points">
              <mxPoint x="-171" y="480" />
              <mxPoint x="-31" y="480" />
              <mxPoint x="-31" y="940" />
              <mxPoint x="-191" y="940" />
              <mxPoint x="-191" y="880" />
            </Array>
          </mxGeometry>
        </mxCell>
        <mxCell id="f1E-nLE_ZABUSn7z6wg_-84" style="edgeStyle=orthogonalEdgeStyle;rounded=0;orthogonalLoop=1;jettySize=auto;html=1;exitX=0.5;exitY=0;exitDx=0;exitDy=0;entryX=0.75;entryY=1;entryDx=0;entryDy=0;endArrow=none;startFill=0;" edge="1" parent="1" source="f1E-nLE_ZABUSn7z6wg_-85" target="f1E-nLE_ZABUSn7z6wg_-58">
          <mxGeometry relative="1" as="geometry" />
        </mxCell>
        <mxCell id="f1E-nLE_ZABUSn7z6wg_-85" value="Partecipa a" style="rhombus;whiteSpace=wrap;html=1;" vertex="1" parent="1">
          <mxGeometry x="-231" y="390" width="120" height="60" as="geometry" />
        </mxCell>
        <mxCell id="f1E-nLE_ZABUSn7z6wg_-86" value="&lt;font style=&quot;font-size: 10px;&quot;&gt;(0,1)&lt;/font&gt;" style="text;html=1;align=center;verticalAlign=middle;whiteSpace=wrap;rounded=0;" vertex="1" parent="1">
          <mxGeometry x="-680" y="185" width="40" height="20" as="geometry" />
        </mxCell>
        <mxCell id="f1E-nLE_ZABUSn7z6wg_-87" value="&lt;font style=&quot;font-size: 10px;&quot;&gt;(1,N)&lt;/font&gt;" style="text;html=1;align=center;verticalAlign=middle;whiteSpace=wrap;rounded=0;" vertex="1" parent="1">
          <mxGeometry x="-680" y="260" width="40" height="20" as="geometry" />
        </mxCell>
        <mxCell id="f1E-nLE_ZABUSn7z6wg_-88" value="&lt;font style=&quot;font-size: 10px;&quot;&gt;(0,N)&lt;/font&gt;" style="text;html=1;align=center;verticalAlign=middle;whiteSpace=wrap;rounded=0;" vertex="1" parent="1">
          <mxGeometry x="-510" y="260" width="40" height="20" as="geometry" />
        </mxCell>
        <mxCell id="f1E-nLE_ZABUSn7z6wg_-89" value="&lt;font style=&quot;font-size: 10px;&quot;&gt;(1,1)&lt;/font&gt;" style="text;html=1;align=center;verticalAlign=middle;whiteSpace=wrap;rounded=0;" vertex="1" parent="1">
          <mxGeometry x="-360" y="260" width="40" height="20" as="geometry" />
        </mxCell>
        <mxCell id="f1E-nLE_ZABUSn7z6wg_-90" value="&lt;font style=&quot;font-size: 10px;&quot;&gt;(0,1)&lt;/font&gt;" style="text;html=1;align=center;verticalAlign=middle;whiteSpace=wrap;rounded=0;" vertex="1" parent="1">
          <mxGeometry x="-436" y="370" width="40" height="20" as="geometry" />
        </mxCell>
        <mxCell id="f1E-nLE_ZABUSn7z6wg_-91" value="&lt;font style=&quot;font-size: 10px;&quot;&gt;(0,N)&lt;/font&gt;" style="text;html=1;align=center;verticalAlign=middle;whiteSpace=wrap;rounded=0;" vertex="1" parent="1">
          <mxGeometry x="-436" y="450" width="40" height="20" as="geometry" />
        </mxCell>
        <mxCell id="f1E-nLE_ZABUSn7z6wg_-92" value="&lt;font style=&quot;font-size: 10px;&quot;&gt;(1,1)&lt;/font&gt;" style="text;html=1;align=center;verticalAlign=middle;whiteSpace=wrap;rounded=0;" vertex="1" parent="1">
          <mxGeometry x="-670" y="540.63" width="40" height="20" as="geometry" />
        </mxCell>
        <mxCell id="f1E-nLE_ZABUSn7z6wg_-93" value="&lt;font style=&quot;font-size: 10px;&quot;&gt;(1,N)&lt;/font&gt;" style="text;html=1;align=center;verticalAlign=middle;whiteSpace=wrap;rounded=0;" vertex="1" parent="1">
          <mxGeometry x="-670" y="620" width="40" height="20" as="geometry" />
        </mxCell>
        <mxCell id="f1E-nLE_ZABUSn7z6wg_-94" value="&lt;font style=&quot;font-size: 10px;&quot;&gt;(1,1)&lt;/font&gt;" style="text;html=1;align=center;verticalAlign=middle;whiteSpace=wrap;rounded=0;" vertex="1" parent="1">
          <mxGeometry x="-600" y="690" width="40" height="20" as="geometry" />
        </mxCell>
        <mxCell id="f1E-nLE_ZABUSn7z6wg_-95" value="&lt;font style=&quot;font-size: 10px;&quot;&gt;(1,1)&lt;/font&gt;" style="text;html=1;align=center;verticalAlign=middle;whiteSpace=wrap;rounded=0;" vertex="1" parent="1">
          <mxGeometry x="-470" y="690" width="40" height="20" as="geometry" />
        </mxCell>
        <mxCell id="f1E-nLE_ZABUSn7z6wg_-96" value="&lt;font style=&quot;font-size: 10px;&quot;&gt;(1,N)&lt;/font&gt;" style="text;html=1;align=center;verticalAlign=middle;whiteSpace=wrap;rounded=0;" vertex="1" parent="1">
          <mxGeometry x="-587" y="1040" width="40" height="20" as="geometry" />
        </mxCell>
        <mxCell id="f1E-nLE_ZABUSn7z6wg_-97" value="&lt;font style=&quot;font-size: 10px;&quot;&gt;(1,N)&lt;/font&gt;" style="text;html=1;align=center;verticalAlign=middle;whiteSpace=wrap;rounded=0;" vertex="1" parent="1">
          <mxGeometry x="-670" y="1010" width="40" height="20" as="geometry" />
        </mxCell>
        <mxCell id="f1E-nLE_ZABUSn7z6wg_-98" value="&lt;font style=&quot;font-size: 10px;&quot;&gt;(1,N)&lt;/font&gt;" style="text;html=1;align=center;verticalAlign=middle;whiteSpace=wrap;rounded=0;" vertex="1" parent="1">
          <mxGeometry x="-436" y="895" width="40" height="20" as="geometry" />
        </mxCell>
        <mxCell id="f1E-nLE_ZABUSn7z6wg_-99" value="&lt;font style=&quot;font-size: 10px;&quot;&gt;(0,N)&lt;/font&gt;" style="text;html=1;align=center;verticalAlign=middle;whiteSpace=wrap;rounded=0;" vertex="1" parent="1">
          <mxGeometry x="-350" y="924.38" width="40" height="20" as="geometry" />
        </mxCell>
        <mxCell id="f1E-nLE_ZABUSn7z6wg_-100" value="&lt;font style=&quot;font-size: 10px;&quot;&gt;(1,N)&lt;/font&gt;" style="text;html=1;align=center;verticalAlign=middle;whiteSpace=wrap;rounded=0;" vertex="1" parent="1">
          <mxGeometry x="-207" y="370" width="40" height="20" as="geometry" />
        </mxCell>
        <mxCell id="f1E-nLE_ZABUSn7z6wg_-101" value="&lt;font style=&quot;font-size: 10px;&quot;&gt;(0,N)&lt;/font&gt;" style="text;html=1;align=center;verticalAlign=middle;whiteSpace=wrap;rounded=0;" vertex="1" parent="1">
          <mxGeometry x="-207" y="450" width="40" height="20" as="geometry" />
        </mxCell>
        <mxCell id="f1E-nLE_ZABUSn7z6wg_-102" value="&lt;span style=&quot;font-size: 10px;&quot;&gt;(t,e)&lt;/span&gt;" style="text;html=1;align=center;verticalAlign=middle;whiteSpace=wrap;rounded=0;" vertex="1" parent="1">
          <mxGeometry x="-231" y="800" width="40" height="20" as="geometry" />
        </mxCell>
        <mxCell id="f1E-nLE_ZABUSn7z6wg_-103" value="&lt;span style=&quot;font-size: 10px;&quot;&gt;(p,e)&lt;/span&gt;" style="text;html=1;align=center;verticalAlign=middle;whiteSpace=wrap;rounded=0;" vertex="1" parent="1">
          <mxGeometry x="-341" y="580" width="30" height="20" as="geometry" />
        </mxCell>
      </root>
    </mxGraphModel>
  </diagram>
</mxfile>
